<svg width="116" height="180" viewBox="0 0 116 180" fill="none" xmlns="http://www.w3.org/2000/svg">
<path d="M81.2241 31.6607C82.1556 31.0601 83.0872 30.4795 84.0187 29.8689C84.9803 29.2383 85.9118 28.5577 86.9034 27.9671C87.3542 27.6968 87.9251 27.6168 88.426 27.4366C88.6363 27.3565 88.8466 27.2564 89.067 27.1563C89.1471 27.2164 89.2673 27.3065 89.4977 27.4666C89.057 27.907 88.6063 28.3475 88.1755 28.8079C87.7949 29.2083 87.4544 29.6387 87.0737 30.0391C86.603 30.5296 86.0921 30.99 85.6313 31.4905C85.1205 32.051 84.6698 32.6616 84.1489 33.2121C83.7583 33.6326 83.2875 33.9729 82.8868 34.3833C82.5763 34.7036 82.3259 35.0839 82.0154 35.4043C81.3743 36.0649 80.7032 36.6855 80.0722 37.3461C79.361 38.0868 78.6999 38.8676 77.9988 39.6183C77.4378 40.2289 76.8769 40.8295 76.2859 41.42C75.9053 41.8004 75.6349 42.3109 75.0539 42.4711C74.9738 42.4911 74.9738 42.7313 74.8836 42.8314C73.8619 43.9625 72.8302 45.0936 71.7985 46.2147C71.3178 46.7252 70.7969 47.2056 70.3161 47.7161C69.6851 48.3767 69.0741 49.0574 68.443 49.718C68.1025 50.0784 67.7719 50.4688 67.3813 50.769C66.9205 51.1194 67.0808 51.4597 67.2711 51.8801C68.0323 51.3796 68.7535 50.9092 69.4747 50.4287C70.877 49.4978 72.1992 48.4868 73.4913 47.3958C74.1524 46.8353 74.8035 46.2047 75.6148 45.7842C76.1257 45.514 76.5163 45.0135 76.9671 44.6231C77.538 44.1327 78.1089 43.6422 78.6899 43.1617C79.331 42.6312 79.982 42.1107 80.6131 41.5702C81.1039 41.1498 81.5747 40.7094 82.0555 40.2789C82.7466 39.6784 83.4377 39.0878 84.1389 38.5072C84.6998 38.0368 85.2808 37.5864 85.8317 37.1059C86.2824 36.7155 86.6731 36.2351 87.1539 35.8947C88.0654 35.2541 88.7866 34.4133 89.658 33.7226C90.4793 33.082 91.2506 32.3713 92.0419 31.6807C92.8032 31.02 93.5444 30.3394 94.3056 29.6888C94.9768 29.1082 95.6579 28.5376 96.359 28.0071C96.5393 27.867 96.8398 27.877 97.0902 27.827C97.1303 28.1973 97.3206 28.7679 97.1704 28.888C96.6195 29.3284 96.6695 29.8789 96.6695 30.4295C96.6595 31.1402 96.7296 31.8408 96.7196 32.5515C96.7196 32.8518 96.8098 33.032 97.0802 32.9519C97.6712 32.8018 98.2421 32.5815 98.8231 32.3914C99.0234 32.3313 99.3039 32.3213 99.4041 32.1812C99.7646 31.6506 100.496 31.6306 100.846 31.1001C100.897 31.03 100.977 30.96 101.047 30.9099C101.918 30.3094 102.83 29.7388 103.661 29.0982C104.282 28.6177 104.933 28.2474 105.684 28.0472C105.865 27.9971 106.045 27.9671 106.235 27.9271C106.265 27.9671 106.295 27.9971 106.325 28.0372C105.654 28.9581 104.983 29.8789 104.292 30.7798C103.551 31.7507 102.81 32.7317 102.028 33.6726C101.598 34.1831 101.077 34.6135 100.606 35.094C100.556 35.144 100.566 35.2741 100.546 35.3642C100.626 35.3542 100.726 35.3642 100.776 35.3242C101.287 34.8637 101.808 34.4133 102.299 33.9228C102.629 33.5925 102.91 33.1921 103.24 32.8518C103.431 32.6516 103.721 32.5415 103.891 32.3413C104.653 31.4605 105.534 30.7097 106.426 29.969C106.746 29.6988 107.207 29.5186 107.377 29.1883C107.728 28.4776 108.429 28.1973 108.95 27.7068C109.35 27.3265 109.851 27.0362 110.292 26.6959C110.532 26.5157 110.743 26.2955 110.963 26.0953C111.414 26.3555 111.354 26.5858 111.053 26.9261C110.603 27.4466 110.212 28.0272 109.801 28.5777C109.761 28.6277 109.751 28.7078 109.701 28.7478C108.93 29.4085 108.539 30.3594 107.868 31.0901C107.608 31.3704 107.457 31.7407 107.237 32.061C107.157 32.1812 106.997 32.2412 106.896 32.3013C106.736 32.5815 106.656 32.9519 106.416 33.1121C105.875 33.4924 105.775 34.1531 105.354 34.5935C104.943 35.0239 104.533 35.4643 104.162 35.9448C103.891 36.3051 103.721 36.7255 103.471 37.1059C103.01 37.7966 102.529 38.4672 102.058 39.1479C101.558 39.8986 101.097 40.6793 100.556 41.4C100.035 42.1007 99.4541 42.7513 98.8832 43.412C98.3623 44.0225 97.8315 44.6231 97.2705 45.2037C96.4792 46.0145 95.6579 46.7952 94.8465 47.576C94.0753 48.3267 93.334 49.0974 92.5327 49.7981C91.501 50.699 90.4192 51.5398 89.3675 52.4206C88.9669 52.7509 88.5862 53.1013 88.2056 53.4316C87.6747 53.882 87.1539 54.3525 86.623 54.7929C86.032 55.2734 85.421 55.7338 84.83 56.2243C83.9786 56.925 83.1372 57.6357 82.3159 58.3664C81.3242 59.2372 80.3627 60.1381 79.2809 61.109C79.5613 61.109 79.7216 61.159 79.8318 61.099C80.7533 60.6586 81.6848 60.2081 82.5863 59.7277C83.5179 59.2272 84.4294 58.6867 85.3409 58.1562C86.1923 57.6557 87.0437 57.1652 87.875 56.6247C88.7465 56.0641 89.5779 55.4235 90.4593 54.893C91.1905 54.4526 92.0319 54.1923 92.713 53.6919C93.2139 53.3315 93.3941 53.6018 93.6145 53.882C94.4158 54.883 95.2172 55.894 95.9383 56.955C96.0886 57.1752 96.0285 57.6657 95.8883 57.9359C95.6278 58.4364 95.2873 58.9169 94.8766 59.3073C94.3557 59.8077 93.7047 60.1781 93.1538 60.6586C92.8633 60.9188 92.683 61.3092 92.4526 61.6495C92.5027 61.6996 92.5628 61.7496 92.6129 61.7896C92.9835 61.5194 93.3741 61.2691 93.7247 60.9789C94.5461 60.3082 95.3474 59.6176 96.1587 58.9469C96.2088 58.9069 96.3991 58.9269 96.4492 58.9769C97.0402 59.7177 97.9416 60.1781 98.3223 61.109C98.5226 61.5995 98.7029 62.0799 98.2321 62.5304C97.9016 62.8507 97.561 63.161 97.2405 63.4713C96.8498 63.8516 96.4592 64.232 96.0686 64.6124C95.5978 65.0428 95.127 65.4732 94.6562 65.9036C93.9751 66.5142 93.284 67.1048 92.6129 67.7254C91.9618 68.3059 91.3107 68.8865 90.6997 69.4971C89.9785 70.2178 89.3074 70.9885 88.5962 71.7192C87.8049 72.53 86.9836 73.3107 86.2023 74.1215C85.5312 74.8222 84.9001 75.5629 84.199 76.3437C84.8 76.684 85.3609 77.0043 85.9118 77.3246C86.9535 77.9452 87.9852 78.5658 89.0169 79.1964C90.0086 79.797 91.0603 80.3375 91.9818 81.0382C92.7531 81.6387 93.6446 82.0091 94.4258 82.5797C95.2572 83.1802 96.0986 83.7708 96.96 84.3414C97.4609 84.6717 97.9917 84.962 98.5126 85.2622C99.3239 85.7327 100.155 86.1831 100.957 86.6636C101.828 87.1941 102.8 87.6245 103.481 88.3352C104.032 88.9158 104.763 89.0459 105.314 89.5564C105.865 90.0669 106.566 90.4072 107.187 90.8476C107.758 91.258 108.299 91.7185 108.88 92.1188C109.2 92.3391 109.591 92.4492 109.911 92.6594C110.382 92.9697 110.833 93.33 111.324 93.7004C111.304 93.7204 111.364 93.6503 111.384 93.6303C111.845 93.9406 112.325 94.2209 112.766 94.5612C113.347 95.0016 113.888 95.4921 114.469 95.9225C114.699 96.1027 115.01 96.1727 115.27 96.3229C115.881 96.6732 116.082 97.2037 115.971 97.8744C115.901 98.2547 115.901 98.6451 115.911 99.0355C115.911 99.3758 115.961 99.7262 115.991 100.137C115.36 100.046 115.01 99.6261 114.579 99.3258C113.988 98.9154 113.387 98.515 112.806 98.1046C112.395 97.8143 111.995 97.524 111.604 97.2137C111.364 97.0336 111.143 96.8033 110.893 96.6332C110.262 96.2128 109.611 95.8124 108.98 95.392C107.798 94.6112 106.626 93.8305 105.454 93.0297C104.713 92.5292 104.042 91.9287 103.25 91.5183C102.76 91.258 102.409 90.8877 101.978 90.5874C101.377 90.167 100.716 89.8366 100.085 89.4463C99.7947 89.2661 99.5243 89.0659 99.2438 88.8657C97.6712 87.7847 96.0986 86.7036 94.516 85.6426C94.0953 85.3623 93.5945 85.1822 93.1638 84.9119C92.3324 84.3814 91.5311 83.8108 90.6997 83.2703C89.7281 82.6297 88.7265 82.0191 87.7649 81.3685C87.3943 81.1182 87.1038 80.7579 86.7332 80.5177C86.3325 80.2574 85.8517 80.1173 85.431 79.8771C84.4995 79.3265 83.578 78.746 82.6665 78.1754C81.7049 77.5748 80.7433 76.9843 79.7817 76.3737C79.0205 75.8932 78.2892 75.3527 77.508 74.9123C76.2859 74.2216 74.9838 73.7812 73.5514 74.0414C73.0506 74.1315 72.5698 74.3718 72.089 74.5519C71.3478 74.8322 70.6867 75.2726 70.0657 75.7431C69.5048 76.1635 68.9839 76.6439 68.443 77.0744C67.7419 77.6349 67.0307 78.1854 66.3195 78.736C65.2477 79.5567 64.0658 79.6468 62.8338 79.2064C62.2628 79.0062 61.6919 78.776 61.171 78.4657C60.4098 78.0153 59.6786 77.5148 58.9774 76.9743C58.116 76.3136 57.3047 75.5929 56.4833 74.8822C56.0225 74.4819 55.6119 74.0214 55.1211 73.6611C54.5601 73.2507 53.9491 72.9304 53.3582 72.57C52.4366 72.0095 51.3949 71.8093 50.3532 71.6491C49.7622 71.5591 49.1712 71.7192 48.6203 71.9995C47.6387 72.51 46.6371 72.9804 45.6454 73.4909C44.5737 74.0514 43.5219 74.632 42.4602 75.2026C41.3584 75.7931 40.2565 76.3937 39.1547 76.9743C38.3534 77.3947 37.522 77.785 36.7307 78.2255C35.689 78.806 34.6874 79.4466 33.6456 80.0272C32.9245 80.4176 32.1632 80.7279 31.432 81.1082C31.0213 81.3184 30.6507 81.6187 30.24 81.859C29.3185 82.3895 28.387 82.92 27.4454 83.4205C26.6441 83.8409 25.8127 84.2012 25.0214 84.6216C24.4805 84.9119 23.9897 85.2823 23.4689 85.5926C22.968 85.8928 22.4472 86.1531 21.9363 86.4334C20.9748 86.9639 20.0132 87.4944 19.0616 88.0349C18.671 88.2551 18.3104 88.5054 17.9197 88.7156C17.0783 89.186 16.2269 89.6565 15.3655 90.0969C14.6644 90.4572 13.9031 90.7075 13.252 91.1379C12.2203 91.8186 11.1385 92.4091 10.0467 92.9897C9.12523 93.4701 8.21373 93.9806 7.30222 94.4911C5.73965 95.382 4.17707 96.3029 2.6145 97.2037C2.33403 97.3639 2.06359 97.5441 1.77311 97.6842C1.25225 97.9344 0.721374 98.1647 0.180483 98.4049C0.180483 97.3739 0.170466 96.3329 0.190499 95.2819C0.190499 95.1518 0.300681 94.9616 0.420879 94.9015C1.49265 94.341 2.58445 93.8105 3.65621 93.2399C4.96838 92.5392 6.26051 91.7885 7.57267 91.0678C8.38401 90.6274 9.20536 90.217 10.0167 89.7866C11.5192 88.9858 13.0116 88.165 14.5141 87.3743C15.6059 86.7937 16.7177 86.2432 17.8196 85.6626C18.5808 85.2622 19.322 84.8418 20.0833 84.4415C20.7644 84.0811 21.4556 83.7408 22.1367 83.3804C22.918 82.96 23.6792 82.4996 24.4605 82.0792C24.8411 81.879 25.2518 81.7388 25.6324 81.5587C25.7226 81.5186 25.8127 81.4285 25.8628 81.3485C26.3636 80.2774 26.8845 79.2164 27.3453 78.1354C27.4655 77.8551 27.4354 77.5048 27.4955 77.0443C26.8144 77.2645 26.1833 77.3746 25.6525 77.6549C25.0615 77.9652 24.5006 78.1554 23.8395 78.0553C23.5891 78.0153 23.3286 78.0153 22.918 77.9952C28.8077 71.1086 34.477 64.232 40.1564 57.2453C39.3951 57.3754 38.9444 57.8358 38.5237 58.2863C37.9628 58.8969 37.512 59.5975 36.9511 60.1881C36.5204 60.6486 35.9595 60.9789 35.4887 61.4193C34.8576 61.9999 34.2567 62.6004 33.6657 63.221C32.7942 64.1319 31.9428 65.0628 31.0814 65.9837C30.4103 66.6844 29.7292 67.375 29.0481 68.0757C28.2067 68.9365 27.3352 69.7673 26.5239 70.6482C26.0631 71.1487 25.7226 71.7592 25.2418 72.2297C24.3002 73.1706 23.2886 74.0314 22.327 74.9523C21.706 75.5429 21.125 76.1935 20.494 76.7641C19.7728 77.4147 18.9815 78.0153 18.2503 78.6559C18.0399 78.8461 17.9197 79.1263 17.7294 79.4066C17.1284 78.3055 16.6376 77.4047 16.1067 76.4337C15.9665 76.5639 15.8663 76.654 15.7662 76.744C15.2353 77.2545 14.7645 77.8451 14.1535 78.2455C13.5425 78.6459 13.0217 79.1063 12.5609 79.6568C11.99 80.3375 11.6794 80.2274 11.1786 79.5067C10.8581 79.0563 11.0784 78.5558 10.818 78.1554C10.6578 77.9052 10.4374 77.5748 10.197 77.5248C9.6561 77.4247 9.09518 77.5148 8.54427 77.4747C8.35396 77.4647 8.08351 77.3746 7.99336 77.2245C7.92325 77.1044 8.03343 76.8441 8.12358 76.674C8.42407 76.0634 8.69452 75.4228 9.07515 74.8722C9.70619 73.9413 10.3973 73.0405 11.1085 72.1596C11.8197 71.2688 12.5909 70.448 13.1118 69.407C13.3622 68.9065 13.7328 68.426 14.1135 67.9656C15.2353 66.6143 16.6176 65.5232 17.8196 64.262C18.5708 63.4613 19.3321 62.6705 20.0933 61.8797C20.8045 61.149 21.5357 60.4484 22.2368 59.7177C23.3286 58.5766 24.3904 57.4154 25.4822 56.2743C26.5239 55.1833 27.5756 54.1022 28.6474 53.0412C29.0982 52.5908 29.639 52.2405 30.0898 51.8C30.5405 51.3496 30.9212 50.8291 31.3619 50.3587C31.9929 49.698 32.634 49.0474 33.2851 48.4168C33.5855 48.1265 33.9361 47.8963 34.2266 47.596C34.467 47.3457 34.6373 47.0254 34.8576 46.7552C35.078 46.4849 35.3184 46.2347 35.5588 45.9944C36.911 44.6031 38.2633 43.2218 39.6155 41.8404C40.7474 40.6893 41.8792 39.5382 43.0111 38.3871C43.542 37.8566 44.0929 37.3561 44.6237 36.8356C45.2247 36.2451 45.8157 35.6345 46.4067 35.0339C46.7472 34.6836 47.0878 34.3432 47.4284 34.0029C48.0794 33.3523 48.7505 32.7217 49.4016 32.061C50.3231 31.1301 51.2246 30.1792 52.1261 29.2383C53.6386 27.6568 55.1411 26.0553 56.6636 24.4837C57.0643 24.0633 57.545 23.713 57.9557 23.2926C58.3764 22.8522 58.757 22.3717 59.1677 21.9213C60.0592 20.9203 60.9206 19.8893 61.8521 18.9284C62.8638 17.8774 63.9356 16.8864 64.9973 15.8855C65.5983 15.3149 66.2294 14.7744 66.8504 14.2339C67.0006 14.1038 67.201 14.0237 67.5015 13.8535C68.1425 14.6343 68.8236 15.425 69.4547 16.2558C69.7051 16.5861 69.8553 16.9965 69.9956 17.3869C70.2159 17.9575 70.4263 18.528 70.5565 19.1186C70.6066 19.3488 70.4964 19.6791 70.3462 19.8693C69.8453 20.4799 69.3145 21.0605 68.7635 21.621C68.3128 22.0714 67.7419 22.4218 67.3612 22.9222C66.9906 23.4127 66.4297 23.693 66.1092 24.2335C65.9489 24.4938 65.6284 24.6639 65.378 24.8741C64.2361 25.8451 63.1042 26.816 61.9623 27.7969C60.9507 28.6678 59.8989 29.5186 58.9373 30.4395C57.6953 31.6306 56.5234 32.8918 55.3314 34.123C55.2513 34.2131 55.2112 34.3432 55.101 34.5735C55.682 34.153 56.1728 33.8027 56.6636 33.4624C57.0442 33.2021 57.4249 32.9519 57.7955 32.6716C58.8472 31.9009 59.919 31.1502 60.9406 30.3494C62.1627 29.3985 63.3446 28.3875 64.5666 27.4366C65.9389 26.3756 67.3512 25.3546 68.7235 24.2936C69.4547 23.733 70.1458 23.1324 70.857 22.5519C71.3779 22.1315 71.9488 21.9613 72.6099 22.1515C72.7401 22.1915 72.9104 22.1015 73.0907 22.0714C73.3311 22.3417 73.311 22.8722 72.9705 22.9823C72.1892 23.2426 71.7384 23.9532 71.0673 24.3636C70.877 24.4737 70.7869 24.724 70.6066 24.8641C70.5064 24.9442 70.3361 24.9442 70.276 25.0243C70.0056 25.3145 69.7652 25.6349 69.4747 25.9051C68.9138 26.4356 68.1926 26.866 67.7819 27.4966C67.1709 28.4275 66.2294 28.9781 65.5583 29.8189C65.5082 29.8889 65.398 29.909 65.2978 30.0391C65.398 30.0391 65.5182 30.0791 65.5783 30.0291C66.1993 29.5686 66.8203 29.0882 67.4314 28.6077C68.0323 28.1473 68.6033 27.6468 69.2143 27.2164C69.8253 26.776 70.4563 26.3255 71.1375 26.0152C71.7885 25.7149 72.4496 25.3646 73.261 25.6449C74.0222 25.9051 74.8436 25.9251 75.6649 25.9552C76.6966 25.9952 77.7283 26.1253 78.77 26.1654C79.2108 26.1854 79.6615 26.0553 80.1022 26.0352C80.6531 26.0152 81.2141 26.0352 81.765 26.0352C82.5463 26.0252 83.3376 26.0052 84.1189 26.0052C84.9302 26.0052 85.7415 26.0152 86.5429 26.0853C86.7432 26.1053 86.9235 26.3656 87.1739 26.5457C86.9435 26.796 86.7532 27.0662 86.5128 27.2664C86.002 27.6868 85.451 28.0672 84.9202 28.4676C84.1189 29.0682 83.3075 29.6587 82.5162 30.2793C82.0755 30.6196 81.6748 31.01 81.2642 31.3804C81.204 31.4304 81.184 31.5305 81.154 31.6106C81.154 31.5606 81.194 31.6106 81.2241 31.6607ZM76.9871 34.7536C76.3961 35.2141 75.8652 35.6044 75.3444 36.0148C74.8135 36.4352 74.3027 36.8957 73.7618 37.3061C73.0206 37.8666 72.2493 38.3871 71.5081 38.9577C70.7969 39.5182 70.1258 40.1288 69.4146 40.6893C68.3929 41.4801 67.3412 42.2408 66.3095 43.0316C65.7987 43.432 65.3279 43.8824 64.8271 44.2928C63.7353 45.1737 62.6334 46.0445 61.5416 46.9153C60.2395 47.9463 59.1076 49.1775 57.6252 49.9683C57.5951 49.9883 57.5851 50.0584 57.5551 50.0884C56.9641 50.6689 56.3831 51.2595 55.7621 51.81C54.8606 52.6108 53.9091 53.3615 53.0276 54.1823C52.3164 54.843 51.7054 55.6137 51.0043 56.2944C50.253 57.0251 49.4317 57.6857 48.6804 58.4164C48.0494 59.027 47.4785 59.7076 46.8674 60.3483C45.4151 61.8597 43.9326 63.3311 42.5103 64.8626C41.7891 65.6334 41.128 66.4641 40.517 67.325C39.8459 68.2659 39.2248 69.2368 38.2933 69.9575C37.8927 70.2678 37.4319 70.488 37.1915 70.9785C37.0012 71.3589 36.7408 71.7092 36.4903 72.0595C35.9094 72.8603 35.3184 73.6611 34.7374 74.4618C34.6974 74.5219 34.7174 74.632 34.6974 74.7121C34.7675 74.7021 34.8677 74.7121 34.9077 74.6721C35.058 74.5219 35.1782 74.3517 35.3384 74.2116C36.3501 73.2507 37.3618 72.2998 38.3734 71.3388C39.305 70.438 40.2365 69.5371 41.148 68.6162C41.9193 67.8355 42.6505 67.0147 43.4218 66.2339C44.0528 65.6033 44.7139 64.9927 45.365 64.3821C46.6471 63.181 47.9392 61.9999 49.2213 60.7987C49.6621 60.3883 50.0627 59.9379 50.4834 59.5075C50.6938 59.2973 50.8941 59.067 51.1245 58.8768C51.5151 58.5565 51.9358 58.2763 52.3164 57.9359C52.8173 57.4855 53.268 56.975 53.7588 56.5246C54.0793 56.2343 54.48 56.0141 54.7905 55.7138C55.5518 54.9831 56.2729 54.2023 57.0342 53.4716C58.116 52.4507 59.2278 51.4597 60.3196 50.4487C61.2812 49.5579 62.2127 48.627 63.1743 47.7361C63.7553 47.2056 64.3763 46.7251 64.9573 46.1946C65.7085 45.514 66.4397 44.8033 67.1709 44.1026C67.3712 43.9124 67.5115 43.6522 67.7218 43.482C68.3629 42.9615 69.054 42.5011 69.675 41.9506C70.4163 41.2799 71.1074 40.5492 71.8086 39.8385C71.8887 39.7584 71.9388 39.6583 71.9889 39.5583C72.3595 38.8175 72.8503 38.1669 73.5614 37.7265C74.4629 37.1659 75.4245 36.6755 76.2859 36.0549C76.6265 35.8147 77.0572 35.4443 76.9871 34.7536ZM93.5244 42.0006C93.4743 41.9405 93.4242 41.8805 93.3741 41.8304C92.8032 42.0306 92.5528 42.7213 91.9117 42.8314C91.9017 42.8314 91.9017 42.8614 91.8917 42.8714C91.5812 43.1918 91.3207 43.6322 90.9401 43.7923C90.289 44.0726 89.8483 44.513 89.3575 44.9835C88.1856 46.0945 86.9435 47.1255 85.7115 48.1665C84.9703 48.7971 84.1689 49.3577 83.4377 49.9883C82.2458 50.9993 81.0839 52.0403 79.9119 53.0612C79.351 53.5517 78.7901 54.0322 78.2592 54.5327C77.5981 55.1533 76.9671 55.8239 76.296 56.4345C75.4546 57.2052 74.5631 57.9359 73.7117 58.6967C73.0907 59.2572 72.4897 59.8378 71.8787 60.4083C71.4179 60.8387 70.9471 61.2591 70.4964 61.6896C69.675 62.4503 68.8637 63.221 68.0424 63.9818C67.221 64.7425 66.3796 65.4732 65.5683 66.2439C64.9873 66.7945 64.4665 67.4251 63.8655 67.9456C63.4949 68.2759 63.004 68.4561 62.5834 68.7363C61.772 69.2668 61.1109 69.9675 60.4899 70.7082C60.1193 71.1487 59.7186 71.5791 59.2679 71.9294C58.717 72.3598 58.3764 72.9204 58.4966 73.4509C58.5968 73.9213 59.3881 74.3617 59.6986 74.0915C60.2395 73.621 60.7503 73.1206 61.2712 72.6401C61.7921 72.1596 62.3229 71.6892 62.8438 71.2087C63.9055 70.2278 64.9573 69.2368 65.999 68.2459C66.8704 67.4151 67.7118 66.5642 68.5833 65.7234C69.1943 65.1329 69.8353 64.5723 70.4463 63.9818C71.1675 63.2811 71.8486 62.5504 72.5698 61.8697C73.0506 61.4093 73.6115 61.0289 74.0923 60.5785C74.6833 60.028 75.2142 59.4274 75.8052 58.8869C76.2759 58.4564 76.8068 58.0961 77.2776 57.6657C77.6782 57.2953 77.9988 56.8449 78.3794 56.4545C79.0806 55.7438 79.7817 55.0331 80.5029 54.3425C81.0939 53.7819 81.7349 53.2715 82.3159 52.7109C82.9469 52.1003 83.5279 51.4497 84.1589 50.8291C84.7799 50.2085 85.431 49.6079 86.0621 48.9973C86.643 48.4268 87.214 47.8462 87.8049 47.2857C88.5962 46.535 89.4777 45.8843 90.1889 45.0335C90.6596 44.473 91.3007 44.0626 91.8516 43.5721C92.3925 43.0716 92.9534 42.5311 93.5244 42.0006ZM75.7851 71.3989C76.1056 71.6591 76.4061 71.9294 76.7167 72.1596C77.508 72.7502 77.9387 72.9904 78.4796 72.4699C79.1607 71.8193 79.7817 71.1186 80.4128 70.428C80.8635 69.9375 81.3042 69.427 81.755 68.9265C82.1757 68.4561 82.6965 68.0357 82.997 67.4951C83.7382 66.1338 84.8801 65.0828 85.6313 63.7315C85.9819 63.1009 86.5028 62.5604 86.9235 61.9698C87.5645 61.069 88.1856 60.1481 88.8066 59.2372C88.9869 58.9669 89.1672 58.6967 89.3375 58.4164C89.2974 58.3864 89.2473 58.3463 89.2072 58.3163C84.5295 62.4703 80.2725 67.0547 75.7851 71.3989ZM42.4502 72.6401C42.6805 72.52 42.8508 72.4299 43.0211 72.3398C43.9526 71.8693 44.8842 71.3989 45.8257 70.9284C46.1563 70.7683 46.5569 70.6882 46.8374 70.458C47.6888 69.7673 48.7305 69.7073 49.7222 69.457C50.3832 69.2969 51.0744 69.1868 51.4851 68.5161C51.8056 67.9856 52.2663 67.5452 52.5668 66.9947C52.8974 66.3841 53.1278 65.7134 53.3481 65.0428C53.3982 64.8826 53.248 64.6424 53.1578 64.4622C53.1378 64.4322 52.9074 64.4622 52.8072 64.5323C51.7956 65.1929 50.9642 66.0938 49.8624 66.6243C49.3916 66.8545 49.011 67.2449 48.5803 67.5452C48.0494 67.9155 47.4985 68.2459 46.9776 68.6162C45.9359 69.3569 44.8742 70.0876 43.8725 70.8684C43.2815 71.3388 42.6906 71.8193 42.4502 72.6401ZM61.752 63.6514C61.7219 63.6214 61.7019 63.5914 61.6719 63.5614C61.6118 63.5914 61.5316 63.6014 61.4815 63.6514C60.55 64.5423 59.6185 65.4332 58.6969 66.344C57.5951 67.4251 56.3831 68.396 55.4015 69.5972C55.1912 69.8574 55.0209 70.1477 54.8606 70.438C54.8206 70.508 54.8506 70.6382 54.9007 70.7082C55.0209 70.8884 56.0927 70.9485 56.2329 70.7883C56.7537 70.1377 57.2546 69.4871 57.7654 68.8264C58.5167 67.8455 59.2579 66.8645 60.0091 65.8836C60.5801 65.1429 61.171 64.4022 61.752 63.6514ZM32.5238 76.4838C31.422 77.4547 30.3402 78.3956 29.2584 79.3465C29.2885 79.3866 29.3085 79.4266 29.3385 79.4667C30.0097 79.1964 30.6808 78.9061 31.3719 78.6859C31.7125 78.5758 31.9428 78.4457 32.0731 78.1054C32.2634 77.6349 32.4737 77.1845 32.664 76.714C32.6841 76.654 32.5739 76.5539 32.5238 76.4838ZM65.2578 75.8932C64.176 75.7831 63.7553 75.9733 63.1343 76.8141C63.9456 77.1544 64.9272 76.744 65.2578 75.8932Z" fill="white"/>
<path d="M21.846 34.6634C22.6874 33.9827 23.3886 33.292 23.9595 32.4612C24.27 32.0108 24.6907 31.6405 25.0613 31.2401C25.6824 30.5594 26.2833 29.8688 26.9144 29.2081C27.2449 28.8578 27.6055 28.5575 27.9561 28.2272C28.2366 27.9669 28.5371 27.7367 28.7975 27.4664C29.2282 27.016 29.739 26.9059 30.3601 27.046C31.0913 27.2162 31.8325 27.3063 32.5737 27.4264C33.1046 27.5065 33.335 27.7767 33.1246 28.2672C32.9243 28.7377 32.6038 29.1581 32.3033 29.5685C31.8225 30.2191 31.3116 30.8597 30.7908 31.4903C30.4502 31.9107 30.0496 32.2811 29.719 32.7115C29.4185 33.0919 29.1781 33.5123 28.9077 33.9126C28.4469 34.6133 27.9661 35.314 27.5154 36.0347C27.3451 36.3049 27.2249 36.6152 27.0747 36.9055C26.7341 37.5862 26.3635 38.2668 26.043 38.9575C25.9127 39.2478 25.8526 39.5781 25.7725 39.8884C25.7124 40.1386 25.6723 40.3989 25.6122 40.7292C26.8843 39.9785 27.8159 38.9575 28.8175 38.0066C29.4786 37.366 30.2499 36.8355 30.8709 36.1648C31.7724 35.2039 32.5938 34.1729 33.4151 33.1519C33.8659 32.5814 34.1964 31.9107 34.6972 31.3902C35.2281 30.8297 35.5687 30.139 36.2297 29.6385C36.8307 29.1781 37.1012 28.2972 37.582 27.6566C37.9726 27.1361 38.4334 26.6356 38.9442 26.2353C39.2047 26.0351 39.6554 26.0451 40.026 26.005C40.2263 25.985 40.4467 26.0751 40.657 26.0751C40.7672 26.0751 40.9275 26.015 40.9776 25.925C41.839 24.5937 42.6503 23.2324 43.5618 21.9411C44.2329 20.9902 45.0243 20.1194 45.7755 19.2285C46.1862 18.748 46.6569 18.3076 47.0776 17.8272C47.7988 17.0064 48.4599 16.1556 48.9507 15.1546C49.2913 14.4539 49.8422 13.8533 50.2629 13.1827C50.7136 12.462 51.1043 11.7113 51.545 10.9906C51.7553 10.6402 52.0158 10.3099 52.2361 9.95959C52.4765 9.56921 52.6969 9.15882 52.9373 8.77845C53.0475 8.60828 53.2077 8.46815 53.2979 8.27797C53.4982 7.94765 53.6986 7.60732 53.8889 7.277C54.0692 6.96671 54.2294 6.63639 54.4298 6.3361C54.57 6.11589 54.7803 5.94572 54.9206 5.72551C55.1109 5.44524 55.2511 5.12493 55.4414 4.84466C55.6718 4.50434 55.9422 4.19404 56.1826 3.85371C56.3629 3.60347 56.5032 3.33321 56.6935 3.09298C57.1042 2.58249 57.1943 1.85178 57.8053 1.49144C57.8554 1.46141 57.8654 1.38133 57.8955 1.32127C58.1058 0.880848 58.3061 0.440424 58.5165 0C58.5666 0.0200193 58.6267 0.0400385 58.6768 0.0500482C58.6968 0.120116 58.6868 0.230222 58.7369 0.27026C59.5482 0.840809 59.9188 1.70164 60.2393 2.58249C60.3195 2.8027 60.1993 3.09298 60.1592 3.35323C60.1492 3.4333 60.059 3.50337 60.059 3.57344C60.0991 4.37421 59.4781 4.78461 59.0574 5.33513C58.6367 5.88566 58.3061 6.50626 57.9355 7.08682C57.635 7.55727 57.3345 8.02773 57.034 8.49818C56.6634 9.08875 56.3429 9.71935 55.9122 10.2599C55.0908 11.2909 54.6101 12.512 53.9089 13.6031C53.4081 14.3838 52.8572 15.1346 52.3563 15.9253C51.8255 16.7661 51.3246 17.627 50.8038 18.4678C50.0926 19.5989 49.3714 20.73 48.6602 21.861C48.4599 22.1713 48.2996 22.5117 48.1995 22.9321C48.3097 22.882 48.4299 22.842 48.53 22.7619C49.4315 22.0112 50.1527 21.1003 50.8438 20.1494C51.4348 19.3286 52.0859 18.5579 52.6869 17.7471C53.1176 17.1565 53.5183 16.5359 53.9389 15.9453C54.0591 15.7752 54.2394 15.6451 54.3596 15.4649C54.8905 14.6541 55.3713 13.8133 55.9623 13.0426C56.2027 12.7323 56.3329 12.3619 56.6134 12.0616C56.9439 11.7013 57.1943 11.2608 57.4648 10.8404C57.8454 10.2499 58.206 9.63928 58.5866 9.0387C58.6066 9.00867 58.6066 8.97864 58.6267 8.94861C58.8671 8.62831 59.0975 8.29799 59.3479 7.98769C59.4781 7.83754 59.6383 7.71743 59.7886 7.57729C59.8387 7.52725 59.9088 7.4772 59.9489 7.41714C60.1292 7.0668 60.2594 6.68644 60.4797 6.36613C60.7602 5.94572 61.1007 5.57537 61.4113 5.17498C61.6216 4.91473 61.832 4.71454 62.0924 5.12493C62.2927 5.44524 62.473 5.80559 62.7334 6.07585C63.2743 6.63639 63.4146 7.3771 63.7351 8.02773C63.9555 8.46815 64.0456 8.97864 64.1959 9.44909C64.2259 9.53918 64.266 9.61926 64.3161 9.75939C63.6149 10.44 62.8637 11.1307 62.1625 11.8714C61.5815 12.482 61.5815 12.8324 62.0223 13.543C62.5231 12.6722 63.3144 12.2318 64.266 12.0816C64.5464 12.0316 64.867 12.1417 65.1474 12.2418C65.2175 12.2718 65.2776 12.5921 65.2175 12.7022C64.9671 13.1727 64.6967 13.6431 64.3762 14.0735C64.1157 14.4239 63.7752 14.7042 63.4646 15.0145C63.4346 15.0445 63.3945 15.0845 63.3645 15.1246C62.6934 15.9053 62.0423 16.6961 61.3512 17.4468C60.2694 18.6179 59.1876 19.779 58.0658 20.9101C57.5349 21.4406 56.8938 21.851 56.3429 22.3615C55.7419 22.9121 55.181 23.5126 54.59 24.0732C53.9289 24.6938 53.2378 25.2743 52.5867 25.9049C51.535 26.9059 50.5033 27.9169 49.4616 28.9278C48.9908 29.3783 48.5 29.7987 48.0592 30.2791C47.6686 30.6995 47.3381 31.18 46.9574 31.6104C46.5868 32.0208 46.1862 32.3912 45.8055 32.7916C45.5551 33.0518 45.2146 33.292 45.1244 33.6023C44.9341 34.2129 44.5034 34.323 43.9825 34.4331C43.8223 34.4632 43.632 34.6433 43.5719 34.7935C43.1612 35.8745 42.5602 36.8154 41.7088 37.6062C41.0076 38.2568 40.3766 38.9775 39.6854 39.6382C39.0544 40.2487 38.3833 40.8293 37.7523 41.4399C37.0411 42.1406 36.3499 42.8713 35.6488 43.592C35.188 44.0624 34.7273 44.5229 34.2765 44.9933C33.8258 45.4538 33.3851 45.9242 32.9443 46.3947C32.3534 47.0453 31.7524 47.6759 31.1914 48.3565C30.5404 49.1373 29.9594 49.9681 29.2983 50.7388C28.6472 51.4996 27.9361 52.2102 27.2249 52.9209C26.6439 53.5115 26.0229 54.062 25.4219 54.6226C24.5906 55.3933 23.7392 56.154 22.9078 56.9348C22.447 57.3652 21.9863 57.8056 21.5455 58.2561C21.1248 58.6865 20.7242 59.1369 20.3335 59.5874C20.013 59.9577 19.7426 60.3581 19.402 60.7084C19.3018 60.8185 19.0414 60.8285 18.8811 60.7885C18.801 60.7685 18.6908 60.4882 18.7309 60.3881C18.9713 59.8776 19.2417 59.3872 19.5222 58.8967C19.6424 58.6865 19.7826 58.4963 19.9229 58.3061C20.3836 57.6455 20.8644 56.9949 21.3152 56.3242C21.5155 56.0239 21.6557 55.6936 21.836 55.3833C21.9362 55.2031 22.0964 55.063 22.1866 54.8828C22.3268 54.5825 22.427 54.2622 22.5472 53.9519C23.028 52.7608 22.6073 51.0892 21.6056 50.3184C21.205 50.0081 20.8243 49.6678 20.4738 49.3075C20.3436 49.1673 20.2334 48.9071 20.2734 48.7269C20.3836 48.2064 20.2935 47.6158 20.7943 47.2154C20.8945 47.1354 20.8844 46.785 20.7943 46.6449C20.6541 46.4047 20.3836 46.4647 20.1633 46.6049C20.0631 46.6649 19.9729 46.735 19.8828 46.795C19.3018 47.1954 19.1516 47.1254 18.8912 46.4847C18.7509 46.1444 18.4905 45.8541 18.3002 45.5438C17.8494 44.8432 17.4288 44.1125 16.948 43.4318C16.1567 42.3107 15.3453 41.2197 14.524 40.1286C13.7026 39.0376 12.8212 37.9966 12.0499 36.8755C10.9581 35.284 9.90635 33.6524 8.88466 32.0108C8.33376 31.13 7.85296 30.2091 7.3922 29.2682C7.24196 28.9679 7.22192 28.5675 7.22192 28.2172C7.22192 27.7367 7.30206 27.2562 7.34212 26.8358C7.53244 27.0761 7.7528 27.4064 8.02324 27.6766C8.86463 28.5275 9.92638 28.5175 11.0082 28.3573C12.2402 28.1771 13.4221 27.7167 14.6842 27.8068C15.4655 27.8568 16.0765 28.1971 16.4872 28.8778C16.6374 29.118 16.7777 29.3683 16.9379 29.6385C18.4404 28.6776 19.8527 27.7167 21.3252 26.8659C21.9863 26.4855 22.7676 26.2853 23.5088 26.0451C23.639 26.005 23.8594 26.1652 24.0096 26.2753C24.7909 26.8258 25.2316 28.057 24.871 28.9379C24.5705 29.6886 24.0497 30.3292 23.4587 30.8997C22.4671 31.8507 21.6056 32.8716 21.7659 34.3831C21.796 34.4432 21.816 34.5032 21.846 34.6634Z" fill="white"/>
<path d="M108.649 79.7671C107.787 80.3076 106.996 80.2175 106.215 80.1675C106.004 80.1575 105.794 80.2275 105.594 80.2275C105.053 80.2275 104.482 80.3176 103.981 80.1675C103.3 79.9573 102.689 80.1575 102.068 80.2976C101.287 80.4778 100.545 80.8181 99.7641 80.9983C99.3735 81.0884 98.9428 80.9883 98.5922 80.9783C98.2216 79.5469 99.4336 78.8162 99.7841 77.7251C98.8025 77.6551 97.9211 77.9153 97.0797 78.2757C96.048 78.7061 95.0664 79.2766 94.0146 79.677C93.3235 79.9373 92.5222 80.0474 91.821 79.7571C91.22 79.5068 90.7693 78.9663 90.5589 78.3257C90.3085 77.595 90.1483 76.8443 89.9479 76.1036C89.8578 75.7933 89.7877 75.483 89.6675 75.1827C89.4471 74.6522 89.6374 74.2418 89.988 73.8514C90.8594 72.8804 91.6808 71.8695 92.5823 70.9286C93.1532 70.328 93.8444 69.8375 94.4654 69.277C95.3268 68.5162 96.1381 67.6954 97.0396 66.9848C97.7107 66.4542 98.502 66.0639 99.2332 65.6034C99.6139 65.3632 99.9845 65.113 100.375 64.8927C100.445 64.8527 100.626 64.8827 100.666 64.9428C101.106 65.5634 101.527 66.194 101.948 66.8246C102.208 67.215 102.068 67.6054 101.858 67.9257C100.796 69.5673 99.704 71.1788 98.6322 72.8204C98.5321 72.9805 98.5521 73.2208 98.5221 73.421C98.5822 73.451 98.6322 73.471 98.6923 73.501C99.0529 73.1907 99.4436 72.9105 99.7741 72.5802C100.165 72.1898 100.435 71.6793 101.066 71.5892C101.126 71.5792 101.136 71.379 101.206 71.3189C101.647 70.9386 102.098 70.5682 102.559 70.2179C102.589 70.1979 102.939 70.4581 102.919 70.5182C102.759 71.0487 102.649 71.5892 102.208 72.0196C102.078 72.1497 102.158 72.6302 102.298 72.8604C102.428 73.0706 102.759 73.2508 103.019 73.2908C103.831 73.411 104.652 73.441 105.463 73.5311C105.684 73.5511 105.974 73.5911 106.095 73.7413C106.225 73.9014 106.205 74.1917 106.215 74.4219C106.215 74.532 106.175 74.6822 106.095 74.7523C105.634 75.1626 105.153 75.553 104.682 75.9534C104.322 76.2637 104.402 76.8643 104.852 77.1345C105.694 77.625 106.555 78.0755 107.377 78.616C107.807 78.9263 108.188 79.3667 108.649 79.7671Z" fill="white"/>
<path d="M33.3949 137.672C32.9743 138.573 32.2731 139.074 31.1813 138.763C31.622 141.686 32.0127 144.519 32.4734 147.332C32.9442 150.164 33.4851 152.987 33.9959 155.83C34.6971 155.83 35.2981 155.83 36.0093 155.83C35.7288 156.24 35.5585 156.661 35.248 156.891C35.0176 157.061 34.6069 157.031 34.2764 157.031C33.1145 157.041 31.9526 157.041 30.7907 157.041C30.1095 157.041 29.4184 157.041 28.6071 157.041C28.9176 156.651 29.1279 156.35 29.3783 156.08C29.4484 156 29.5987 155.96 29.7189 155.94C30.9109 155.75 31.3115 155.56 31.3115 154.208C31.3115 152.827 31.1613 151.456 31.0511 150.074C30.9509 148.793 30.8307 147.502 30.7005 146.221C30.6104 145.32 30.4902 144.419 30.38 143.528C30.2698 142.597 30.1496 141.656 29.9393 140.675C29.7289 141.076 29.4985 141.456 29.3182 141.866C28.6772 143.258 28.0561 144.659 27.4151 146.06C26.8141 147.382 26.173 148.683 25.6021 150.024C25.0011 151.446 24.4702 152.897 23.8993 154.328C23.6288 155.009 23.3384 155.67 23.0479 156.34C23.0379 156.35 23.0279 156.37 23.0279 156.38C23.0579 157.121 22.5671 157.381 22.0162 157.471C19.7224 151.886 17.4186 146.281 15.0747 140.575C14.2734 145.69 13.7325 150.715 13.4821 155.84C14.2935 155.84 15.0848 155.84 15.8961 155.84C15.6557 156.23 15.4854 156.581 15.245 156.871C15.1348 156.991 14.8744 157.031 14.6841 157.031C13.1215 157.031 11.559 157.011 9.99638 157.001C9.73595 157.001 9.47552 157.001 9.21509 157.001C9.42543 156.38 9.79605 155.96 10.4872 155.83C10.968 155.74 11.1683 155.309 11.2785 154.879C11.5389 153.818 11.8094 152.747 12.0097 151.676C12.22 150.565 12.3503 149.444 12.5205 148.333C12.7008 147.161 12.9212 146 13.1015 144.819C13.2217 144.008 13.2918 143.188 13.402 142.367C13.5022 141.646 13.6324 140.935 13.7426 140.215C13.8127 139.764 13.8527 139.314 13.9128 138.773C13.2317 138.773 12.5806 138.773 11.9396 138.773C11.9195 138.253 12.5306 137.622 13.0214 137.632C13.6324 137.642 14.2434 137.582 14.8544 137.572C15.215 137.572 15.5656 137.602 15.9262 137.652C16.0163 137.662 16.1465 137.782 16.1766 137.873C16.3569 138.483 16.457 139.124 16.6774 139.724C16.9979 140.595 17.4086 141.426 17.7592 142.277C18.0396 142.957 18.28 143.658 18.5705 144.339C18.8009 144.909 19.0814 145.46 19.3217 146.02C19.5521 146.551 19.7725 147.081 19.9929 147.612C20.2633 148.263 20.5337 148.903 20.7942 149.564C21.1748 150.535 21.5454 151.516 21.9361 152.487C22.0863 152.857 22.2666 153.207 22.487 153.658C22.8676 152.827 23.2082 152.076 23.5487 151.346C24.0996 150.184 24.6605 149.023 25.1914 147.852C25.6221 146.891 26.0128 145.92 26.4335 144.959C26.8642 143.968 27.3049 142.977 27.7256 141.977C28.2264 140.795 28.8274 139.654 28.9676 138.353C28.9777 138.293 29.0177 138.233 29.0077 138.183C28.8775 137.782 28.9777 137.572 29.4384 137.602C30.1596 137.642 30.8808 137.662 31.612 137.682C32.203 137.682 32.814 137.672 33.3949 137.672Z" fill="white"/>
<path d="M83.0569 157.031C83.2873 156.05 84.0485 155.94 84.7296 155.73C85.1904 155.59 85.3907 155.28 85.4308 154.809C85.4809 154.138 85.581 153.468 85.6111 152.797C85.6512 151.956 85.6311 151.106 85.6411 150.265C85.6512 149.074 85.6512 147.882 85.6612 146.691C85.6612 145.26 85.6612 143.819 85.6612 142.387C85.6612 141.206 85.6612 140.025 85.6612 138.764C84.9901 138.764 84.369 138.764 83.6579 138.764C83.9183 138.393 84.1086 137.983 84.4291 137.733C84.6495 137.563 85.0401 137.603 85.3607 137.583C86.0318 137.552 86.7129 137.542 87.384 137.562C87.5643 137.573 87.8347 137.693 87.8848 137.833C88.2354 138.794 88.9165 139.514 89.5476 140.275C90.2487 141.116 90.9599 141.957 91.6811 142.788C92.3221 143.518 92.9932 144.229 93.6243 144.97C94.2653 145.71 94.8763 146.471 95.4973 147.212C96.2286 148.083 96.9598 148.953 97.701 149.804C98.7828 151.046 99.8746 152.277 100.956 153.508C101.067 153.628 101.137 153.778 101.297 153.898C101.297 148.873 101.157 143.859 100.816 138.754C100.055 138.754 99.3136 138.754 98.4422 138.754C98.7928 138.333 99.0432 137.973 99.3637 137.683C99.514 137.552 99.8044 137.552 100.035 137.542C100.736 137.522 101.437 137.512 102.138 137.522C102.789 137.542 103.44 137.613 104.102 137.623C104.402 137.633 104.713 137.552 105.033 137.502C104.893 137.753 104.773 137.993 104.642 138.223C104.422 138.614 103.841 138.834 103.37 138.704C103.12 138.634 103.03 138.694 103.01 138.974C102.95 139.845 102.829 140.726 102.799 141.596C102.719 143.839 102.649 146.081 102.609 148.323C102.589 149.504 102.659 150.685 102.669 151.856C102.679 153.578 102.649 155.29 102.689 157.011C102.699 157.502 102.319 157.332 102.128 157.432C101.998 157.502 101.647 157.412 101.537 157.272C100.656 156.19 99.8245 155.059 98.943 153.978C98.2218 153.097 97.4205 152.287 96.6793 151.426C95.8079 150.415 94.9665 149.384 94.095 148.373C93.1635 147.292 92.2119 146.221 91.2804 145.14C90.429 144.149 89.6077 143.138 88.7663 142.137C88.2254 141.506 87.6745 140.886 87.0134 140.145C87.0434 145.46 87.0034 150.625 87.5242 155.78C88.3756 155.78 89.1569 155.78 90.0083 155.78C89.9182 155.89 89.828 155.94 89.808 156.01C89.5375 156.981 88.7963 157.011 87.975 156.981C86.5827 156.931 85.1804 156.931 83.7881 156.921C83.5577 156.971 83.3273 157.011 83.0569 157.031Z" fill="white"/>
<path d="M51.004 117.123C50.413 117.123 49.802 117.123 49.0908 117.123C49.3613 116.702 49.5416 116.302 49.8421 116.031C50.0123 115.881 50.383 115.951 50.6634 115.941C51.8854 115.931 53.1074 115.921 54.3295 115.931C54.7902 115.931 55.261 115.991 55.7518 116.031C55.5715 116.322 55.4112 116.682 55.1608 116.942C55.0206 117.083 54.7201 117.113 54.4897 117.113C54.039 117.103 53.7685 117.113 53.7585 117.733C53.7385 118.964 53.5782 120.206 53.4781 121.437C53.428 122.107 53.3879 122.778 53.3579 123.449C53.3478 123.589 53.418 123.739 53.448 123.879C57.4446 123.879 61.4512 123.879 65.3877 123.879C65.3877 122.788 65.4077 121.717 65.3777 120.646C65.3576 119.825 65.2675 119.004 65.1974 118.184C65.1773 117.973 65.1273 117.753 65.1172 117.543C65.1072 117.233 64.947 117.113 64.6465 117.113C64.1156 117.123 63.5847 117.113 62.9837 117.113C63.2141 116.812 63.4745 116.592 63.5847 116.312C63.745 115.901 64.0956 115.961 64.356 115.951C65.3576 115.921 66.3693 115.951 67.371 115.971C67.8918 115.981 68.4027 116.011 68.9235 116.021C69.1739 116.021 69.4243 115.971 69.6748 115.951C69.6547 116.532 69.0838 117.123 68.5229 117.123C67.7215 117.123 67.7516 117.133 67.7015 117.903C67.6013 119.435 67.4711 120.956 67.371 122.488C67.3409 122.948 67.371 123.419 67.3609 123.879C67.3309 125.03 67.2808 126.171 67.2708 127.322C67.2708 127.993 67.3409 128.654 67.3609 129.324C67.391 130.435 67.391 131.546 67.421 132.648C67.4411 133.188 67.5112 133.719 67.5613 134.239C68.2524 134.239 68.8835 134.239 69.5245 134.239C69.4243 134.93 68.8935 135.41 68.2825 135.41C66.5797 135.41 64.8869 135.41 63.154 135.41C63.4946 134.78 63.8151 134.269 64.6465 134.279C65.1874 134.279 65.6381 133.899 65.6381 133.228C65.6381 132.327 65.7583 131.416 65.7683 130.515C65.7783 129.555 65.7383 128.594 65.7082 127.623C65.6882 126.942 65.6682 126.251 65.6181 125.571C65.6081 125.431 65.4177 125.19 65.3076 125.19C64.9069 125.16 64.4962 125.23 64.0956 125.24C63.6849 125.24 63.2842 125.19 62.8735 125.19C62.3226 125.19 61.7617 125.22 61.2108 125.24C60.9103 125.25 60.6198 125.26 60.3193 125.26C59.7784 125.27 59.2476 125.29 58.7067 125.28C58.2259 125.28 57.7551 125.23 57.2743 125.23C56.9438 125.23 56.6132 125.26 56.2827 125.26C55.8419 125.27 55.4112 125.28 54.9705 125.28C54.4396 125.28 53.9188 125.28 53.4079 125.28C53.4079 126.942 53.4079 128.554 53.4079 130.165C53.4079 130.826 53.4079 131.476 53.428 132.137C53.448 132.738 53.4981 133.328 53.5081 133.929C53.5181 134.219 53.6383 134.289 53.8987 134.289C54.4396 134.279 54.9905 134.289 55.5314 134.289C55.5314 134.73 54.9004 135.42 54.4296 135.42C52.827 135.42 51.2243 135.42 49.6217 135.42C49.5115 135.42 49.3913 135.41 49.2811 135.4C49.4314 134.74 49.802 134.389 50.433 134.319C51.3746 134.209 51.5749 134.099 51.6651 133.158C51.7953 131.757 51.6751 130.335 51.6651 128.924C51.6651 128.524 51.7151 128.113 51.7252 127.713C51.7352 127.382 51.7252 127.052 51.7051 126.722C51.6551 125.921 51.5649 125.12 51.5248 124.33C51.4547 122.938 51.4147 121.537 51.3546 120.145C51.3245 119.365 51.2844 118.584 51.2243 117.803C51.2143 117.593 51.0941 117.403 51.004 117.123Z" fill="white"/>
<path d="M75.5247 155.84C75.0038 156.961 74.6732 157.141 73.4713 157.031C73.2509 157.011 73.0205 157.001 72.8102 157.041C72.2893 157.141 71.9387 156.891 71.6783 156.51C70.907 155.389 70.1758 154.238 69.3845 153.127C68.4931 151.866 67.5715 150.635 66.65 149.394C66.2393 148.843 65.8387 148.292 65.3779 147.792C64.7369 147.081 63.8955 146.741 62.9439 146.691C62.8838 146.691 62.7436 146.891 62.7536 146.991C62.7736 147.782 62.8237 148.573 62.8437 149.374C62.8638 150.034 62.8538 150.695 62.8337 151.355C62.8137 151.796 62.7135 152.236 62.7236 152.677C62.7236 153.107 62.8337 153.538 62.8538 153.968C62.8738 154.579 62.8638 155.179 62.8638 155.82C63.6551 155.82 64.4063 155.82 65.3078 155.82C65.0073 156.26 64.7669 156.6 64.5165 156.941C64.4865 156.981 64.4063 157.011 64.3462 157.011C62.8337 157.021 61.3313 157.021 59.8188 157.031C59.3981 157.031 58.9774 157.031 58.4966 157.031C58.8371 156.45 59.0775 155.91 59.8889 155.91C60.7102 155.91 60.9606 155.63 60.9907 154.779C61.0408 153.568 61.0308 152.366 61.0308 151.155C61.0308 150.104 61.0107 149.063 60.9707 148.012C60.9106 146.07 60.8304 144.139 60.7503 142.197C60.7102 141.236 60.6501 140.285 60.6 139.324C60.59 139.154 60.55 138.994 60.5099 138.743C59.8688 138.743 59.1977 138.743 58.5166 138.743C58.7169 138.453 58.9473 138.143 59.1477 137.822C59.328 137.512 59.6385 137.572 59.8889 137.562C60.4999 137.522 61.1209 137.532 61.7319 137.552C62.3329 137.572 62.9239 137.642 63.5249 137.662C64.1058 137.682 64.6968 137.702 65.2778 137.652C66.2093 137.572 67.1308 137.652 68.0022 137.923C70.1458 138.593 71.0673 140.395 70.6266 142.587C70.4463 143.468 70.0056 144.219 69.3945 144.809C68.7435 145.43 67.9722 145.95 67.0407 146.15C66.8604 146.19 66.6801 146.261 66.4998 146.321C66.9004 146.751 67.3011 147.121 67.6316 147.542C68.3228 148.423 69.0039 149.313 69.655 150.224C70.7368 151.726 71.7985 153.237 72.8803 154.749C73.1407 155.109 73.4212 155.449 73.7317 155.85C74.2726 155.84 74.8736 155.84 75.5247 155.84ZM62.8938 145.55C63.4247 145.53 63.9055 145.52 64.3863 145.48C64.8771 145.44 65.3779 145.43 65.8587 145.31C66.61 145.119 67.3311 144.759 67.822 144.179C68.453 143.418 68.7435 142.487 68.6233 141.476C68.473 140.205 67.862 139.344 66.7502 139.074C65.6985 138.813 64.5666 138.873 63.4748 138.813C63.3546 138.803 63.1242 138.994 63.1142 139.104C63.0541 139.784 63.0441 140.465 63.014 141.156C62.974 142.006 62.9239 142.867 62.9038 143.718C62.8738 144.309 62.8938 144.909 62.8938 145.55Z" fill="white"/>
<path d="M87.8952 117.123C87.2441 117.123 86.613 117.123 85.8718 117.123C86.1924 116.712 86.3927 116.292 86.7332 116.092C87.0337 115.911 87.4745 115.951 87.8551 115.941C89.037 115.921 90.209 115.921 91.3909 115.931C92.3826 115.941 93.3842 115.971 94.3758 116.031C96.279 116.142 97.9217 117.603 98.122 119.485C98.2723 120.866 97.8415 122.117 96.7998 123.128C95.9584 123.959 94.9668 124.46 93.7648 124.67C94.0753 124.95 94.4059 125.17 94.6363 125.461C95.3374 126.331 96.0085 127.232 96.6696 128.123C97.4609 129.194 98.2422 130.265 99.0235 131.336C99.5944 132.127 100.185 132.918 100.726 133.729C100.987 134.119 101.297 134.249 101.758 134.209C102.129 134.179 102.519 134.239 102.95 134.269C102.67 134.649 102.459 134.96 102.219 135.26C102.149 135.35 101.998 135.4 101.878 135.41C101.157 135.42 100.446 135.44 99.7247 135.4C99.5343 135.39 99.304 135.22 99.1838 135.06C98.3724 133.909 97.5811 132.738 96.7798 131.586C95.9785 130.435 95.1872 129.284 94.3558 128.153C93.875 127.503 93.3542 126.872 92.8233 126.261C92.1221 125.461 91.1906 125.15 90.1288 125.07C90.1288 126.091 90.1288 127.112 90.1288 128.133C90.1288 129.024 90.1188 129.925 90.1288 130.816C90.1489 131.847 90.219 132.868 90.229 133.899C90.239 134.249 90.4594 134.279 90.6797 134.289C91.3108 134.309 91.9418 134.299 92.5729 134.299C92.3926 135.03 91.9018 135.42 91.1305 135.42C89.4177 135.42 87.6948 135.42 85.972 135.42C86.1022 134.81 86.5329 134.379 87.0738 134.319C88.1756 134.179 88.5062 133.829 88.4962 132.728C88.4861 131.346 88.4461 129.965 88.416 128.584C88.376 126.822 88.3559 125.06 88.2858 123.298C88.2558 122.458 88.1155 121.627 88.0654 120.786C88.0154 119.815 88.0154 118.834 87.9853 117.853C87.9953 117.623 87.9352 117.393 87.8952 117.123ZM90.5696 117.123C90.4193 119.405 90.2791 121.637 90.1288 123.949C90.9802 123.899 91.7715 123.879 92.5528 123.789C94.496 123.579 95.7781 122.478 96.0386 120.556C96.1888 119.475 95.708 118.214 94.6763 117.693C93.3742 117.062 91.9619 117.113 90.5696 117.123Z" fill="white"/>
<path d="M22.968 135.951C20.6141 135.841 18.5507 135.26 16.7678 133.919C14.9648 132.558 13.7428 130.796 13.1518 128.564C12.691 126.832 12.681 125.13 13.0516 123.429C13.3621 122.017 14.0232 120.696 14.9447 119.565C15.706 118.624 16.5574 117.733 17.6793 117.173C18.3804 116.822 19.0916 116.492 19.8028 116.172C21.6057 115.361 23.5089 115.251 25.412 115.551C26.594 115.741 27.7559 116.122 28.8176 116.742C29.9996 117.443 31.0513 118.304 31.8426 119.405C32.704 120.596 33.315 121.917 33.6055 123.379C33.7858 124.29 33.896 125.201 33.7858 126.111C33.6957 126.872 33.5955 127.643 33.3751 128.374C33.1347 129.164 32.8342 129.975 32.3935 130.656C31.8226 131.527 31.1314 132.347 30.3802 133.078C29.8093 133.639 29.0981 134.079 28.3969 134.479C27.1348 135.2 25.7726 135.681 24.3002 135.791C23.8094 135.831 23.3286 135.911 22.968 135.951ZM31.8927 126.242C31.9027 126.071 31.9227 125.901 31.9127 125.731C31.8326 124.129 31.3518 122.668 30.5605 121.277C30.0597 120.406 29.4487 119.635 28.7175 119.005C26.8444 117.383 24.6508 116.582 22.1466 116.832C20.9647 116.953 19.8428 117.273 18.8011 117.893C17.2485 118.824 16.1167 120.066 15.3755 121.727C14.8947 122.798 14.6943 123.899 14.6342 125.05C14.5942 125.911 14.7144 126.762 14.9848 127.593C15.1851 128.203 15.3053 128.844 15.5858 129.415C15.8963 130.025 16.3671 130.556 16.7577 131.136C17.3788 132.057 18.2101 132.768 19.1417 133.308C20.1734 133.899 21.2952 134.309 22.5172 134.469C24.4805 134.73 26.2534 134.319 27.9562 133.368C29.4186 132.548 30.5004 131.356 31.1715 129.855C31.6623 128.714 32.0029 127.513 31.8927 126.242Z" fill="white"/>
<path d="M58.4362 155.839C58.1558 156.24 57.9755 156.59 57.705 156.85C57.5548 156.991 57.2543 157.031 57.0239 157.031C55.7618 157.051 54.5098 157.041 53.2477 157.041C52.5465 157.041 51.8454 157.041 51.0441 157.041C51.3946 156.61 51.625 156.07 52.0157 155.899C52.4464 155.709 53.0273 155.859 53.6183 155.859C53.3479 155.089 53.1175 154.398 52.8671 153.707C52.196 151.926 51.5148 150.144 50.8337 148.362C50.6534 147.882 50.413 147.511 49.762 147.531C48.1894 147.591 46.6268 147.581 45.0542 147.591C44.8939 147.591 44.7337 147.531 44.5734 147.541C43.5818 147.641 43.5818 147.641 43.0209 149.003C42.6903 149.814 42.3397 150.614 42.0092 151.415C41.4984 152.656 40.9975 153.908 40.5067 155.159C40.4266 155.349 40.4166 155.569 40.3665 155.809C41.0977 155.809 41.8189 155.809 42.6803 155.809C42.3698 156.24 42.1895 156.68 41.8589 156.92C41.6186 157.091 41.1878 157.031 40.8373 157.031C39.5051 157.041 38.1629 157.031 36.8307 157.041C36.43 157.041 36.0193 157.041 35.5786 157.041C35.7789 156.78 36.0093 156.57 36.1195 156.31C36.2798 155.96 36.5702 155.929 36.8607 155.879C37.642 155.739 38.0427 155.109 38.3932 154.528C39.2346 153.127 40.0159 151.675 40.7672 150.224C41.4583 148.883 42.0993 147.511 42.7404 146.15C43.1711 145.249 43.5517 144.318 43.9624 143.407C44.5534 142.096 45.1644 140.805 45.7353 139.494C45.9657 138.963 46.166 138.393 46.2762 137.832C46.3764 137.302 46.6568 137.101 47.1476 137.061C47.2678 137.051 47.3981 137.031 47.5283 137.011C48.0391 138.202 48.5399 139.434 49.0908 140.635C49.7019 141.956 50.373 143.247 51.004 144.559C51.4848 145.559 51.9455 146.58 52.4263 147.581C53.0574 148.893 53.6984 150.194 54.3295 151.505C54.8804 152.636 55.4112 153.777 55.9622 154.908C56.0924 155.169 56.2126 155.429 56.3828 155.659C56.463 155.769 56.6533 155.829 56.7935 155.839C57.3144 155.849 57.8252 155.839 58.4362 155.839ZM50.0023 146.34C49.0408 144.218 48.1293 142.176 47.2077 140.134C47.1577 140.134 47.1076 140.144 47.0575 140.144C46.116 142.186 45.1644 144.228 44.1928 146.34C46.116 146.34 48.0291 146.34 50.0023 146.34Z" fill="white"/>
<path d="M82.0554 137.322C81.7449 137.082 81.5045 136.892 81.234 136.681C81.5746 136.211 81.8551 135.841 82.1656 135.42C78.2591 135.42 74.4328 135.42 70.4963 135.42C70.6967 135.15 70.897 134.96 71.0072 134.729C71.1474 134.409 71.3277 134.349 71.6683 134.379C71.9387 134.409 72.2893 134.329 72.5097 134.169C72.7601 133.979 73.0305 133.658 73.0606 133.358C73.1507 132.657 73.1307 131.937 73.1307 131.226C73.1407 129.915 73.1607 128.594 73.1207 127.282C73.0706 125.39 72.9904 123.499 72.8903 121.617C72.8102 120.145 72.7 118.674 72.5898 117.123C71.9387 117.123 71.2876 117.123 70.5965 117.123C70.8068 116.782 70.917 116.452 71.1474 116.272C71.3878 116.082 71.7384 115.941 72.0489 115.941C73.7417 115.921 75.4245 115.951 77.1172 115.951C77.9887 115.951 78.8501 115.971 79.7215 115.931C80.3726 115.901 81.0237 115.751 81.6748 115.731C81.9552 115.721 82.3058 115.811 82.5161 115.991C82.9969 116.402 83.4176 116.892 83.9785 117.483C81.0137 117.363 78.1489 117.243 75.2542 117.123C75.164 118.204 75.0839 119.235 75.0038 120.276C74.9236 121.287 74.8635 122.298 74.7934 123.298C74.7834 123.479 74.6933 123.749 74.7834 123.829C74.9236 123.959 75.1841 124.029 75.3844 124.029C76.1757 124.009 76.957 123.969 77.7483 123.909C78.3493 123.859 78.9503 123.719 79.5613 123.719C79.9519 123.719 80.3826 123.809 80.7332 123.989C81.2941 124.279 81.795 124.68 82.406 125.1C82.1756 125.12 82.0454 125.14 81.9152 125.14C79.7416 125.14 77.578 125.14 75.4044 125.14C74.8335 125.14 74.7734 125.26 74.8335 125.831C74.8735 126.231 74.7834 126.652 74.7834 127.062C74.7834 127.653 74.8235 128.233 74.8235 128.824C74.8235 129.234 74.8034 129.645 74.7934 130.055C74.7834 130.255 74.7533 130.445 74.7634 130.646C74.7834 131.266 74.8235 131.897 74.8535 132.517C74.8735 133.008 74.8635 133.498 74.8936 133.989C74.9036 134.179 74.9537 134.259 75.2341 134.239C76.386 134.189 77.548 134.269 78.6999 134.189C80.9135 134.039 83.067 133.608 85.0403 132.497C85.1905 132.417 85.481 132.427 85.6313 132.517C85.8817 132.677 85.8116 132.908 85.6112 133.138C84.7999 134.079 83.9986 135.05 83.1973 136.001C82.8066 136.441 82.436 136.882 82.0554 137.322Z" fill="white"/>
<path d="M34.3767 132.758C34.8775 132.318 35.3583 131.927 35.8091 131.497C36.0695 131.247 36.2197 131.257 36.4101 131.567C37.1513 132.798 38.1529 133.759 39.4951 134.28C40.607 134.71 41.7889 134.73 42.9408 134.37C43.7622 134.119 44.3832 133.609 45.0042 132.998C46.0159 132.007 46.2563 130.776 46.1762 129.545C46.106 128.434 45.485 127.483 44.3932 126.852C43.0911 126.102 41.6487 125.841 40.2564 125.401C39.0444 125.021 37.7823 124.68 36.8107 123.799C36.0395 123.099 35.6588 122.228 35.5086 121.157C35.3683 120.156 35.6288 119.285 35.9994 118.484C36.3099 117.814 36.9409 117.223 37.562 116.773C38.5937 116.012 39.7956 115.672 41.1178 115.612C42.1395 115.562 43.0911 115.692 44.0426 115.962C44.5936 116.122 45.1144 116.392 45.6653 116.572C45.8156 116.623 46.076 116.603 46.1561 116.502C46.4967 116.112 46.7872 115.682 47.1478 115.201C47.4683 115.381 47.8089 115.582 48.2195 115.822C47.3281 116.943 46.4767 118.024 45.6753 119.035C44.9341 118.484 44.263 117.864 43.4917 117.423C41.8991 116.512 40.1863 116.432 38.6738 117.503C37.2414 118.514 36.7807 120.086 37.6621 121.757C38.0027 122.408 38.6237 122.819 39.3349 123.039C40.9676 123.549 42.6203 124 44.233 124.56C46.056 125.191 47.4483 126.342 47.919 128.294C48.1594 129.295 48.0793 130.326 47.7387 131.357C47.4683 132.188 47.0376 132.908 46.4767 133.499C45.9057 134.109 45.1645 134.61 44.4233 135.02C43.2313 135.681 41.9091 135.901 40.5469 135.851C38.8741 135.791 37.3616 135.24 35.9994 134.29C35.4184 133.849 34.9276 133.269 34.3767 132.758Z" fill="white"/>
<path d="M81.6847 160.965C81.0336 161.495 80.4526 161.966 79.9318 162.386C79.0503 161.765 78.249 161.115 77.3675 160.624C76.8267 160.324 76.1556 160.214 75.5245 160.124C73.9119 159.864 72.2992 160.064 70.8268 160.724C69.9954 161.105 69.2542 161.735 68.5631 162.356C67.6415 163.187 67.0606 164.258 66.68 165.429C66.2793 166.66 66.089 167.931 66.2292 169.213C66.3194 170.073 66.4296 170.974 66.7801 171.745C67.2108 172.706 67.6816 173.667 68.4228 174.498C69.0539 175.218 69.755 175.819 70.5363 176.329C71.7082 177.09 73.0104 177.491 74.4127 177.601C75.5646 177.691 76.6864 177.561 77.7482 177.2C78.5795 176.92 79.3308 176.409 80.082 175.959C80.7531 175.559 81.3741 175.098 81.9451 174.718C82.2055 174.888 82.516 175.108 82.8566 175.338C81.5344 176.76 80.072 177.741 78.4593 178.401C76.1856 179.322 73.7816 179.492 71.4077 178.812C70.0756 178.431 68.8836 177.751 67.8118 176.83C66.8703 176.029 66.1391 175.068 65.5481 174.017C65.1775 173.367 65.0373 172.596 64.7668 171.885C64.3261 170.694 64.3261 169.443 64.4062 168.212C64.4563 167.391 64.7067 166.58 64.9271 165.769C65.0673 165.229 65.2476 164.678 65.5181 164.188C65.8686 163.557 66.3094 162.977 66.7601 162.416C67.1207 161.976 67.5514 161.585 67.9721 161.195C68.6532 160.564 69.4245 160.074 70.2859 159.693C71.2875 159.243 72.2892 158.923 73.381 158.792C74.5129 158.662 75.6147 158.662 76.7565 158.813C77.8383 158.953 78.85 159.253 79.7815 159.803C80.3925 160.164 81.0035 160.544 81.6847 160.965Z" fill="white"/>
<path d="M62.9739 161.005C62.433 161.465 61.9422 161.916 61.4113 162.326C61.3312 162.386 61.0708 162.326 60.9806 162.236C60.1392 161.375 59.1476 160.765 58.0057 160.394C56.2027 159.824 54.4398 159.914 52.6769 160.544C51.7554 160.875 50.894 161.345 50.2329 162.026C49.4416 162.837 48.7404 163.717 48.3097 164.838C47.8089 166.12 47.5485 167.411 47.5885 168.762C47.6186 169.923 47.8289 171.065 48.3698 172.106C48.8506 173.036 49.3615 173.997 50.0326 174.788C50.914 175.839 52.0859 176.58 53.3781 177.08C54.3797 177.471 55.4214 177.641 56.4832 177.611C57.2945 177.591 58.1459 177.541 58.8972 177.281C59.999 176.9 61.0708 176.41 61.9923 175.649C62.453 175.269 62.9639 174.948 63.4046 174.628C63.635 174.888 63.8654 175.158 64.1358 175.479C63.7652 175.799 63.4347 176.149 63.044 176.43C62.2727 176.96 61.4915 177.491 60.6801 177.951C59.5482 178.602 58.3262 179.012 57.0241 179.122C55.3313 179.272 53.6686 179.192 52.0559 178.562C50.0426 177.771 48.5 176.47 47.3181 174.648C46.6971 173.697 46.2964 172.666 46.016 171.615C45.7856 170.764 45.7956 169.833 45.8056 168.942C45.8256 168.062 45.9358 167.171 46.0961 166.3C46.3064 165.139 46.8373 164.048 47.5084 163.137C48.3698 161.966 49.4216 160.935 50.7538 160.174C52.2362 159.333 53.7787 158.873 55.4515 158.693C56.8638 158.542 58.2361 158.693 59.5683 159.083C60.8103 159.473 61.9823 160.074 62.9739 161.005Z" fill="white"/>
<path d="M54.3497 112.778C55.121 112.778 55.8522 112.778 56.6435 112.778C56.4732 112.998 56.2929 113.138 56.2328 113.319C56.0225 113.939 55.4816 113.769 55.0609 113.809C54.4499 113.859 53.8389 113.819 53.2279 113.819C52.8973 113.819 52.5668 113.819 52.2362 113.809C51.6953 113.809 51.1544 113.809 50.5234 113.809C50.864 113.239 51.0843 112.818 51.6953 112.778C52.2763 112.748 52.4967 112.278 52.5868 111.777C52.6469 111.407 52.5968 111.026 52.6169 110.646C52.6369 110.206 52.707 109.755 52.707 109.315C52.707 108.894 52.6269 108.474 52.6269 108.054C52.6269 107.633 52.717 107.223 52.7371 106.802C52.7571 106.392 52.727 105.982 52.727 105.571C52.727 104.991 52.7371 104.4 52.717 103.82C52.677 102.769 52.6269 101.717 52.5768 100.666C52.5267 99.5254 52.4866 98.3943 52.4366 97.2532C52.4165 96.7527 52.3865 96.2422 52.3664 95.7417C52.3564 95.4715 52.2863 95.3714 51.9758 95.3914C51.4249 95.4314 50.874 95.4014 50.2129 95.4014C50.4733 95.0311 50.6636 94.7508 50.874 94.4805C50.9241 94.4205 51.0242 94.3604 51.1044 94.3604C52.9975 94.3504 54.8906 94.3604 56.8038 94.3604C56.4732 95.1812 55.9223 95.5516 55.0609 95.4114C54.6903 95.3514 54.6402 95.6016 54.6302 95.8619C54.5701 97.6135 54.52 99.3752 54.4699 101.127C54.4399 102.108 54.3798 103.099 54.3497 104.08C54.3297 104.73 54.3497 105.381 54.3597 106.022C54.3597 106.092 54.4399 106.162 54.4799 106.212C55.2211 105.491 55.9624 104.73 57.0842 104.881C57.7353 104.971 58.3864 105.261 58.9773 105.571C59.378 105.781 59.6985 106.152 60.0191 106.482C60.3897 106.852 60.4999 107.323 60.4798 107.833C60.4398 108.824 60.3997 109.815 60.3997 110.796C60.3997 111.427 60.4798 112.067 60.5299 112.748C61.1109 112.748 61.7018 112.748 62.3128 112.748C62.1426 112.998 61.9923 113.199 61.8621 113.409C61.5115 113.979 60.9105 113.759 60.4297 113.809C59.9089 113.869 59.368 113.749 58.8271 113.709C58.8271 113.048 58.8371 112.398 58.8271 111.737C58.8071 110.546 58.8371 109.355 58.7169 108.174C58.6768 107.773 58.3263 107.333 57.9857 107.073C57.565 106.742 57.0341 106.492 56.5133 106.382C55.5317 106.162 54.7804 107.003 54.4699 108.054C54.3898 108.334 54.3497 108.634 54.3497 108.934C54.3497 110.216 54.3497 111.487 54.3497 112.778Z" fill="white"/>
<path d="M47.4082 76.6138C47.5183 76.894 47.6185 77.1243 47.7187 77.3845C45.8356 78.5957 44.0927 79.987 42.1695 81.1081C42.1495 81.0681 42.1295 81.038 42.1094 80.998C42.0894 81.0981 42.1194 81.2482 42.0593 81.2983C41.5886 81.6686 41.1078 82.029 40.617 82.3593C39.3949 83.1801 38.1729 84.0009 36.9509 84.8117C36.6104 85.0319 36.2498 85.2221 35.9192 85.4523C35.178 85.9628 34.4468 86.4833 33.7156 87.0038C33.3149 87.2841 32.9243 87.5743 32.5236 87.8446C31.8525 88.275 31.1714 88.6754 30.5003 89.1058C29.6188 89.6664 28.6572 90.1268 27.896 90.8175C26.8142 91.8184 25.4219 92.3289 24.3201 93.2899C23.669 93.8604 22.8777 94.2808 22.1365 94.7613C21.3252 95.2818 20.4838 95.7723 19.6824 96.3128C18.6007 97.0535 17.5389 97.8242 16.4671 98.585C15.766 99.0855 15.0749 99.606 14.3537 100.066C13.6525 100.507 12.9013 100.867 12.2001 101.308C11.2686 101.898 10.3671 102.539 9.44557 103.139C9.08498 103.38 8.65427 103.53 8.33374 103.81C7.49235 104.551 6.48068 105.051 5.59923 105.722C5.48905 105.802 5.28872 105.752 5.1585 105.832C4.93814 105.962 4.73781 106.152 4.53748 106.302C4.01662 106.693 3.50578 107.093 2.96489 107.454C2.87474 107.514 2.69444 107.444 2.54419 107.444C2.07342 108.314 0.731206 108.785 0 108.304C0.560925 107.944 1.12185 107.594 1.68277 107.233C2.26373 106.853 2.83467 106.463 3.41563 106.082C4.1268 105.612 4.83798 105.151 5.53913 104.671C5.87969 104.441 6.19021 104.17 6.53077 103.94C7.07166 103.58 7.63258 103.249 8.16346 102.889C8.57414 102.609 8.94475 102.289 9.35542 102.018C9.98646 101.598 10.6476 101.218 11.2686 100.787C11.8495 100.387 12.4004 99.9363 12.9714 99.5259C13.3821 99.2256 13.7827 98.8652 14.2435 98.665C15.2752 98.2246 16.0064 97.3538 16.958 96.8233C17.3386 96.6131 17.6391 96.2727 18.1499 96.1927C18.5406 96.1326 18.831 95.6021 19.2117 95.3418C20.0531 94.7613 20.9245 94.2408 21.7659 93.6702C21.9662 93.5401 22.1064 93.2999 22.3068 93.1698C23.078 92.6492 23.8794 92.1588 24.6506 91.6383C25.452 91.0978 26.2332 90.5072 27.0446 89.9667C27.9761 89.3561 28.9377 88.8055 29.8592 88.1949C30.7507 87.6044 31.5921 86.9337 32.4836 86.3332C33.2148 85.8427 33.986 85.3922 34.7373 84.9318C35.0778 84.7216 35.4284 84.5114 35.769 84.2912C36.3199 83.9408 36.8808 83.6005 37.4217 83.2402C38.1128 82.7697 38.794 82.2892 39.4851 81.8088C40.1662 81.3283 40.8473 80.8378 41.5385 80.3774C42.1094 79.987 42.7104 79.6367 43.2914 79.2563C44.1929 78.6658 45.0743 78.0552 45.9758 77.4646C46.3965 77.1643 46.8873 76.9141 47.4082 76.6138Z" fill="white"/>
<path d="M73.6614 94.1506C73.7415 94.1806 73.9619 94.2107 74.0921 94.3308C74.7031 94.9113 75.274 95.5319 75.875 96.1225C76.3057 96.5529 76.7665 96.9633 77.1872 97.3937C78.0486 98.2846 78.9 99.1754 79.7614 100.066C79.8015 100.106 79.8716 100.146 79.9317 100.156C80.5327 100.266 80.723 100.827 81.0936 101.187C81.5143 101.588 81.955 101.978 82.3857 102.379C82.6261 102.599 82.8565 102.829 83.0969 103.049C83.4074 103.329 83.7279 103.59 84.0184 103.88C84.5894 104.43 85.1503 104.981 85.7012 105.552C86.0217 105.882 86.1519 106.272 86.1319 106.743C86.1219 106.893 86.2821 107.043 86.3623 107.193C86.3222 107.243 86.2821 107.303 86.2421 107.353C85.7813 107.223 85.2605 107.193 84.8899 106.943C84.4892 106.673 84.2388 106.182 83.8882 105.812C83.4675 105.361 83.0268 104.941 82.5861 104.511C82.0251 103.96 81.3841 103.48 80.9333 102.849C80.6629 102.479 80.3223 102.288 80.0218 102.008C79.7213 101.738 79.4609 101.438 79.1304 101.197C79.0302 101.087 79.3708 100.637 78.7798 100.857C78.7197 100.877 78.5194 100.737 78.4993 100.647C78.3491 100.016 77.7581 99.816 77.3775 99.4056C76.9668 98.9752 76.5862 98.5048 76.1354 98.1244C75.6046 97.664 75.2339 97.0434 74.5528 96.7231C74.3124 96.613 74.1522 96.3327 73.9719 96.1225C73.3408 95.4118 72.7799 94.611 72.0487 94.0305C71.5879 93.6601 71.1372 93.2798 70.7065 92.8794C70.4561 92.6492 70.2257 92.3789 69.9753 92.1387C69.6948 91.8684 69.3743 91.6382 69.0938 91.3579C68.9035 91.1577 68.7533 90.9175 68.5229 90.6072C67.9119 90.5571 67.6414 89.8264 67.1406 89.396C67.1005 89.366 67.1005 89.2759 67.0605 89.2459C66.9904 89.1858 66.8702 89.1758 66.8301 89.1058C66.3493 88.2549 65.2976 87.9847 64.8268 87.0738C64.5664 86.5733 63.9253 86.263 63.4646 85.8626C63.3343 85.7525 63.2642 85.5724 63.134 85.4522C62.6132 84.9317 62.0823 84.4213 61.5714 83.9008C60.8603 83.16 60.1691 82.4093 59.458 81.6686C59.2276 81.4384 58.9471 81.2582 58.7268 81.018C58.4263 80.6877 58.1658 80.3173 57.8954 79.957C57.8453 79.8969 57.8253 79.7868 57.7752 79.7568C57.0239 79.4465 56.7235 78.7158 56.2026 78.1853C55.7118 77.6848 55.1308 77.2944 54.61 76.824C54.3996 76.6338 54.1392 76.4036 54.3295 76.0332C54.3896 75.9331 54.3896 75.793 54.4297 75.6128C54.62 75.6929 54.8403 75.7329 54.9806 75.863C55.822 76.6638 56.6333 77.4846 57.4647 78.2954C57.8854 78.7058 58.3361 79.0761 58.7568 79.4765C59.1575 79.8569 59.5281 80.2673 59.9187 80.6676C59.9988 80.7477 60.079 80.8378 60.1691 80.9079C60.7401 81.3984 61.4613 81.7987 61.8619 82.4093C62.4329 83.2902 63.3744 83.7506 63.9854 84.5614C64.3761 85.0719 64.937 85.4522 65.4078 85.9027C65.5881 86.0828 65.7283 86.3131 65.9086 86.4832C66.9303 87.4542 67.982 88.4051 68.9937 89.396C69.7149 90.1067 70.396 90.8674 71.1071 91.5881C71.4677 91.9485 71.8584 92.2788 72.249 92.6191C72.6196 92.9494 73.0103 93.2597 73.3609 93.6101C73.4911 93.7102 73.5311 93.8904 73.6614 94.1506Z" fill="white"/>
<path d="M42.7503 160.313C42.6401 162.786 42.5299 165.188 42.4398 167.59C42.3897 168.912 42.3897 170.223 42.3697 171.544C42.3496 172.745 42.4198 173.947 42.2895 175.138C42.2094 175.928 41.7186 176.589 41.1276 177.18C40.4966 177.8 39.7754 178.251 38.9741 178.551C37.0509 179.282 35.1377 179.312 33.3248 178.201C32.6937 177.81 32.0927 177.38 31.4417 176.949C31.7722 176.589 32.0226 176.299 32.253 176.049C32.8039 176.419 33.3348 176.859 33.9358 177.17C34.4566 177.44 35.0576 177.55 35.6486 177.66C36.4699 177.81 37.2011 177.65 37.9223 177.42C39.3847 176.949 40.2862 175.948 40.4966 174.397C40.5967 173.666 40.6669 172.936 40.6969 172.205C40.7169 171.784 40.5767 171.354 40.5767 170.934C40.5767 170.203 40.6568 169.472 40.6468 168.742C40.6368 167.871 40.5667 166.99 40.5266 166.119C40.4765 165.178 40.4265 164.247 40.3664 163.306C40.3163 162.425 40.2762 161.555 40.1761 160.684C40.166 160.554 39.8655 160.364 39.6953 160.364C39.0742 160.353 38.4632 160.404 37.712 160.444C38.0125 160.033 38.2028 159.613 38.5233 159.373C38.7337 159.212 39.1243 159.302 39.4448 159.292C41.1777 159.272 42.9206 159.262 44.6534 159.252C44.7135 159.252 44.7736 159.262 44.7937 159.272C44.4531 160.113 43.8621 160.634 42.7503 160.313Z" fill="white"/>
<path d="M44.5634 82.5693C44.5434 82.9998 44.5234 83.29 44.5134 83.5703C44.4933 84.0808 43.9825 84.1208 43.702 84.3811C43.1711 84.8816 42.5702 85.312 41.9792 85.7524C41.6186 86.0227 41.2179 86.2329 40.8573 86.5131C40.5168 86.7734 40.2163 87.0937 39.8857 87.374C39.0844 88.0446 38.2731 88.7053 37.4818 89.3859C36.7305 90.0265 36.0694 90.8073 35.2481 91.3078C34.8374 91.558 34.7172 92.2186 34.0962 92.1286C33.7456 93.0895 32.6939 93.3597 32.133 94.1305C31.8725 94.4808 31.4418 94.701 31.1113 95.0113C30.7106 95.3817 30.35 95.7821 29.9494 96.1424C29.3183 96.703 28.6572 97.2335 28.0162 97.774C27.9461 97.8341 27.916 97.9342 27.8459 97.9942C27.3551 98.4947 26.9344 99.1153 26.3434 99.4356C25.8927 99.6859 25.6022 100.066 25.1815 100.326C24.5905 100.707 24.1097 101.277 23.5689 101.748C23.3285 101.948 23.028 102.078 22.7775 102.268C22.6473 102.368 22.5672 102.529 22.447 102.629C21.4053 103.459 20.3536 104.29 19.2918 105.101C18.9312 105.371 18.5306 105.592 18.1299 105.802C18.0297 105.852 17.8394 105.842 17.7493 105.772C17.2484 105.391 17.2685 104.941 17.7593 104.521C18.4705 103.89 19.1616 103.239 19.8728 102.619C20.624 101.968 21.3853 101.327 22.1665 100.717C23.0179 100.046 23.9294 99.4556 24.7708 98.765C25.492 98.1744 26.1231 97.4837 26.8142 96.8631C27.4753 96.2626 28.1865 95.722 28.8475 95.1215C29.3884 94.621 29.8792 94.0704 30.4201 93.57C30.7306 93.2897 31.0912 93.0695 31.4218 92.8192C31.8425 92.4989 32.2431 92.1486 32.6638 91.8283C33.345 91.3078 34.0461 90.8173 34.7272 90.2968C35.0878 90.0265 35.4384 89.7262 35.789 89.436C36.42 88.9055 37.001 88.2849 37.6921 87.8544C38.5836 87.3039 39.2847 86.5632 40.066 85.9026C40.7872 85.292 41.5084 84.6714 42.2096 84.0308C42.6603 83.6204 43.0309 83.1299 43.5117 82.7695C43.7721 82.5894 44.1728 82.6394 44.5634 82.5693Z" fill="white"/>
<path d="M82.2156 137.582C81.9452 138.002 81.7048 138.383 81.4343 138.793C81.1739 138.793 80.8534 138.803 80.5329 138.793C80.2023 138.783 80.1322 138.963 80.1122 139.264C80.0521 140.295 79.9519 141.316 79.8918 142.347C79.8618 142.997 79.9219 143.658 79.8818 144.319C79.8317 145.319 79.6915 146.32 79.6715 147.321C79.6514 149.083 79.6815 150.845 79.7316 152.596C79.7616 153.668 79.8718 154.749 79.9519 155.83C80.643 155.83 81.3242 155.83 82.0854 155.83C81.825 156.21 81.6547 156.6 81.3542 156.861C81.1639 157.021 80.7933 157.031 80.5028 157.031C79.0204 157.021 77.538 156.991 76.0555 156.971C75.8953 156.971 75.735 157.021 75.5146 157.071C75.6348 156.891 75.705 156.75 75.7951 156.64C76.0756 156.26 76.326 155.92 76.9169 155.92C77.7784 155.91 78.0989 155.449 78.1289 154.378C78.149 153.127 78.149 151.886 78.0688 150.635C77.9687 148.993 78.0087 147.341 77.9687 145.7C77.9286 144.379 77.8585 143.067 77.7884 141.746C77.7383 140.865 77.6982 139.984 77.588 139.103C77.568 138.943 77.2675 138.703 77.0872 138.693C76.5864 138.673 76.0756 138.763 75.5647 138.803C75.5647 138.243 76.2058 137.642 76.7467 137.642C77.3376 137.642 77.9286 137.592 78.5096 137.602C79.2307 137.602 79.9519 137.662 80.6831 137.662C81.1539 137.662 81.6247 137.612 82.2156 137.582Z" fill="white"/>
<path d="M82.1356 81.1179C81.745 80.8676 81.3544 80.6174 80.9737 80.3671C80.4729 80.0268 79.9621 79.6965 79.4713 79.3361C79.1207 79.0759 78.8102 78.7556 78.4696 78.4753C78.0589 78.145 77.6182 77.8447 77.1975 77.5244C77.6983 77.0539 78.3494 77.144 78.7601 77.6145C78.9804 77.8647 79.3711 78.0849 79.7016 78.105C80.3227 78.145 80.6632 78.5654 81.0839 78.8757C81.6649 79.3061 82.2058 79.7866 82.7867 80.217C84.159 81.228 85.5413 82.2189 86.9336 83.2099C87.6948 83.7504 88.4761 84.2809 89.2574 84.8014C90.5295 85.6322 91.8116 86.433 93.0837 87.2538C93.7448 87.6842 94.4059 88.1046 95.0469 88.565C95.2873 88.7352 95.4075 89.0755 95.7781 89.0655C95.7781 89.1456 95.7781 89.2257 95.7781 89.3458C96.4893 89.4058 97.0202 89.9864 97.6412 90.4068C98.0218 90.6671 98.4225 90.8973 98.7931 91.1575C99.6545 91.7681 100.506 92.3987 101.367 93.0093C101.998 93.4497 102.69 93.8201 103.291 94.2906C103.731 94.6409 104.312 94.9612 104.262 95.6819C103.16 96.0522 102.359 95.5017 101.578 94.8511C101.347 94.6609 101.047 94.5508 100.796 94.3706C100.526 94.1804 100.276 93.9502 100.005 93.74C99.5844 93.4097 99.1537 93.0794 98.723 92.7591C98.6629 92.719 98.5928 92.689 98.5327 92.639C98.1521 92.3487 97.7714 92.0484 97.3908 91.7781C97.0402 91.5279 96.6796 91.2877 96.309 91.0474C95.708 90.657 95.097 90.2767 94.506 89.8663C93.855 89.4058 93.2339 88.9054 92.5729 88.4549C91.7916 87.9244 90.9702 87.454 90.1889 86.9234C89.2374 86.2828 88.3058 85.6022 87.3643 84.9616C86.3226 84.2509 85.2508 83.5702 84.2191 82.8395C83.6081 82.4091 83.0471 81.9286 82.4762 81.4482C82.366 81.3581 82.326 81.1779 82.2458 81.0378C82.1957 81.0578 82.1657 81.0878 82.1356 81.1179Z" fill="white"/>
<path d="M70.9571 106.382C69.685 107.333 68.4831 108.234 67.2911 109.145C66.61 109.665 65.9489 110.226 65.2879 110.786C65.1977 110.867 65.1476 111.147 65.2077 111.207C65.7887 111.777 66.3997 112.308 67.2711 112.418C68.0924 112.518 68.8236 112.298 69.5248 111.918C69.9855 111.667 70.4363 111.417 70.897 111.167C71.0773 111.417 71.2476 111.657 71.4179 111.888C70.7368 112.398 70.1458 112.949 69.4547 113.319C68.8337 113.639 68.1225 113.849 67.4213 113.939C64.9373 114.26 62.7737 111.928 62.8839 109.645C62.9741 107.764 64.0258 106.432 65.5883 105.531C67.0908 104.661 68.6133 104.841 70.0757 105.722C70.3662 105.892 70.6166 106.122 70.9571 106.382ZM68.5031 106.853C67.9222 106.202 66.4598 106.272 65.6685 106.653C64.5967 107.173 64.176 108.364 64.4365 110.006C65.8187 108.925 67.1509 107.894 68.5031 106.853Z" fill="white"/>
<path d="M43.2512 106.112C43.8322 105.201 43.8322 105.201 44.944 105.151C44.944 104.511 44.954 103.87 44.944 103.229C44.934 102.869 44.904 102.509 44.8439 102.158C44.7737 101.718 45.1844 101.638 45.3847 101.428C45.7554 101.057 46.1861 100.747 46.6068 100.427C46.7169 100.347 46.8672 100.337 47.0174 100.287C46.9573 101.378 46.8972 102.439 46.8271 103.5C46.8071 103.89 46.727 104.28 46.727 104.671C46.727 104.921 46.747 105.201 47.1777 105.181C48.0792 105.141 48.9807 105.171 49.8822 105.171C49.6217 105.952 49.1209 106.232 48.2795 106.152C47.8288 106.102 47.358 106.132 46.9073 106.182C46.8171 106.192 46.6869 106.423 46.6869 106.553C46.7069 107.634 46.747 108.725 46.7971 109.806C46.8271 110.336 46.8872 110.857 46.9573 111.387C47.0275 111.958 47.4181 112.248 47.929 112.428C48.4999 112.628 49.0107 112.518 49.4615 112.118C49.7319 111.878 50.0124 111.648 50.2728 111.427C50.5132 111.638 50.7136 111.818 50.9339 112.008C50.3129 113.159 48.7603 114.32 47.2178 113.94C46.0058 113.639 45.1343 112.809 45.0943 111.447C45.0542 110.086 45.0342 108.735 45.0041 107.373C45.0041 107.253 45.0842 107.123 45.0842 107.003C45.0342 106.132 45.0342 106.132 44.1227 106.132C43.8422 106.112 43.5818 106.112 43.2512 106.112Z" fill="white"/>
<path d="M115.731 108.885C115.37 108.865 115 108.845 114.739 108.835C114.268 108.505 113.838 108.204 113.427 107.904C112.806 107.454 112.195 107.003 111.584 106.553C111.013 106.122 110.452 105.682 109.871 105.272C109.25 104.821 108.599 104.401 107.988 103.94C107.638 103.68 107.337 103.36 106.997 103.089C106.576 102.769 106.125 102.479 105.694 102.179C105.464 102.018 105.214 101.878 104.993 101.708C104.352 101.228 103.711 100.747 103.07 100.257C102.98 100.187 102.92 100.087 102.84 100.017C102.689 99.8964 102.519 99.7763 102.359 99.6662C102.229 99.5761 102.078 99.506 101.948 99.416C101.467 99.0656 100.977 98.7253 100.516 98.3549C99.7647 97.7443 99.0234 97.1137 98.2722 96.5032C97.9016 96.1929 97.531 95.8725 97.1404 95.6023C96.8098 95.3821 96.6696 95.1118 96.6896 94.6113C96.95 94.7114 97.1704 94.7715 97.3707 94.8716C98.0519 95.2119 98.763 95.5022 99.3941 95.9226C100.245 96.4831 101.007 97.1638 101.848 97.7544C102.349 98.1047 102.92 98.3349 103.441 98.6752C103.831 98.9355 104.182 99.2558 104.553 99.5461C104.713 99.6762 104.903 99.7763 105.043 99.9264C105.474 100.377 106.065 100.597 106.536 100.997C106.967 101.378 107.477 101.668 107.938 102.008C108.319 102.289 108.689 102.589 109.03 102.919C109.521 103.39 110.042 103.8 110.592 104.191C111.183 104.611 111.654 105.202 112.205 105.672C112.536 105.952 112.946 106.152 113.307 106.393C113.547 106.553 113.808 106.693 114.008 106.893C114.258 107.133 114.449 107.434 114.699 107.664C114.88 107.824 115.13 107.934 115.36 108.034C115.811 108.234 115.911 108.455 115.731 108.885Z" fill="white"/>
</svg>
