<svg id="Layer_1" data-name="Layer 1" xmlns="http://www.w3.org/2000/svg" viewBox="0 0 209 28.9"><defs><style>.cls-1{fill:#442f91}</style></defs><title>mtschool_logo</title><path class="cls-1" d="M-176.3 425h-2.26v-1.3h5.93v1.3h-2.28v13.64h-1.39V425zM-171.32 423.56h1.32v5.38a2.47 2.47 0 0 1 2.24-1.77c1.49 0 2.46 1.26 2.46 3.39v8.07h-1.32v-7.83c0-1.58-.58-2.46-1.58-2.46s-1.79 1-1.79 2.58v7.71h-1.32v-15.07zM-163.74 433.23v-.3c0-3.82 1.47-5.74 3.18-5.74s3 2 3 5.55v.85h-4.87c.09 2.69 1.17 3.95 2.52 3.95a3.31 3.31 0 0 0 2-.7l.13 1.28a3.92 3.92 0 0 1-2.28.68c-1.94 0-3.68-1.88-3.68-5.57zm4.91-.75c0-2.41-.71-4.08-1.73-4.08s-1.79 1.35-1.86 4.08h3.59zM-152.34 423.68h1.54l2.5 7.58 2.52-7.58h1.54v14.94h-1.35V426.8l-2.67 7.86h-.08l-2.66-7.86v11.83h-1.32v-14.95zM-142.54 433.16v-.32c0-3.56 1.49-5.66 3.29-5.66s3.27 2.09 3.27 5.66v.32c0 3.57-1.5 5.66-3.29 5.66s-3.27-2.09-3.27-5.66zm5.21 0v-.34c0-2.75-.85-4.42-1.94-4.42s-1.94 1.67-1.94 4.42v.34c0 2.75.85 4.44 1.94 4.44s1.94-1.68 1.94-4.44zM-134.43 435.42v-8.07h1.32v7.83c0 1.58.58 2.45 1.58 2.45s1.79-1 1.79-2.56v-7.73h1.32v11.27h-1.32v-1.56a2.48 2.48 0 0 1-2.24 1.75c-1.49.02-2.45-1.24-2.45-3.38zM-126.36 427.36h1.36v1.58a2.47 2.47 0 0 1 2.24-1.77c1.49 0 2.46 1.26 2.46 3.39v8.07h-1.32v-7.83c0-1.58-.58-2.46-1.58-2.46s-1.79 1-1.79 2.58v7.71h-1.32v-11.27zM-118.08 436.73v-8.22h-1v-1.15h1v-3.09h1.34v3.09h1.74v1.15h-1.69v7.9a.91.91 0 0 0 1 1.09 2.37 2.37 0 0 0 .66-.11v1.15a2.86 2.86 0 0 1-1 .19 1.81 1.81 0 0 1-2.05-2zM-114 435.38v-.21c0-2.22 1.07-3.61 2.84-3.61a4.18 4.18 0 0 1 1.79.43v-1.22c0-1.45-.68-2.28-2-2.28a4.21 4.21 0 0 0-2 .51v-1.28a4.83 4.83 0 0 1 2.2-.49c2 0 3.16 1.2 3.16 3.42v8h-1.34v-1.52a2.33 2.33 0 0 1-2.16 1.71c-1.49-.02-2.49-1.45-2.49-3.46zm4.63-.13v-2.15a3.68 3.68 0 0 0-1.56-.41c-1.15 0-1.77 1-1.77 2.39v.21c0 1.41.55 2.37 1.54 2.37s1.79-1.12 1.79-2.41zM-106 423.56h1.39v1.75H-106v-1.75zm0 3.8h1.34v11.27H-106v-11.27zM-102.53 427.36h1.32v1.58a2.47 2.47 0 0 1 2.21-1.78c1.49 0 2.46 1.26 2.46 3.39v8.07h-1.32v-7.83c0-1.58-.58-2.46-1.58-2.46s-1.79 1-1.79 2.58v7.71h-1.32v-11.26zM-91.45 438.07v-1.52a5.06 5.06 0 0 0 2.54.92 1.78 1.78 0 0 0 1.9-1.92c0-1.09-.38-1.82-1.92-3.82-1.94-2.5-2.5-3.37-2.5-4.87a3.12 3.12 0 0 1 3.12-3.29 4.25 4.25 0 0 1 2.28.62v1.52a4 4 0 0 0-2.2-.79 1.76 1.76 0 0 0-1.77 1.77c0 1 .41 1.71 1.94 3.63 1.88 2.31 2.48 3.44 2.48 5.08a3.16 3.16 0 0 1-3.22 3.33 5.37 5.37 0 0 1-2.65-.66zM-84.39 433.18v-.34c0-3.82 1.64-5.64 3.46-5.64a2.5 2.5 0 0 1 1.41.36V429a2.22 2.22 0 0 0-1.34-.49c-1 0-2.18 1.3-2.18 4.31v.43c0 3.07 1.09 4.29 2.26 4.29a2.16 2.16 0 0 0 1.26-.51v1.34a2.38 2.38 0 0 1-1.43.45c-1.86-.02-3.44-1.82-3.44-5.64zM-78 423.56h1.32v5.38a2.47 2.47 0 0 1 2.24-1.77c1.49 0 2.46 1.26 2.46 3.39v8.07h-1.32v-7.83c0-1.58-.58-2.46-1.58-2.46s-1.79 1-1.79 2.58v7.71H-78v-15.07zM-70.38 433.16v-.32c0-3.56 1.49-5.66 3.29-5.66s3.27 2.09 3.27 5.66v.32c0 3.57-1.5 5.66-3.29 5.66s-3.27-2.09-3.27-5.66zm5.21 0v-.34c0-2.75-.85-4.42-1.94-4.42s-1.94 1.67-1.94 4.42v.34c0 2.75.85 4.44 1.94 4.44s1.94-1.68 1.94-4.44zM-62.57 433.16v-.32c0-3.56 1.49-5.66 3.29-5.66s3.27 2.09 3.27 5.66v.32c0 3.57-1.5 5.66-3.29 5.66s-3.27-2.09-3.27-5.66zm5.21 0v-.34c0-2.75-.85-4.42-1.94-4.42s-1.94 1.67-1.94 4.42v.34c0 2.75.85 4.44 1.94 4.44s1.94-1.68 1.94-4.44zM-54.29 423.56h1.34v15.07h-1.34v-15.07z" transform="translate(261.33 -420.21)"/><g><path class="cls-1" d="M-177.16 445.73a2.44 2.44 0 0 1 2.48-2.49 2.51 2.51 0 0 1 1.89.75l-.54.63a1.92 1.92 0 0 0-1.35-.6 1.62 1.62 0 0 0-1.59 1.7 1.63 1.63 0 0 0 1.59 1.71 1.89 1.89 0 0 0 1.38-.63l.54.55a2.49 2.49 0 0 1-2 .85 2.42 2.42 0 0 1-2.4-2.47zM-171.73 445.73a2.47 2.47 0 0 1 2.53-2.49 2.44 2.44 0 0 1 2.51 2.48 2.47 2.47 0 0 1-2.53 2.49 2.45 2.45 0 0 1-2.51-2.48zm4.15 0a1.65 1.65 0 0 0-1.64-1.71 1.63 1.63 0 0 0-1.62 1.7 1.65 1.65 0 0 0 1.64 1.71 1.63 1.63 0 0 0 1.62-1.7zM-165.17 443.3h2.17a1.94 1.94 0 0 1 1.39.48 1.46 1.46 0 0 1 .4 1 1.45 1.45 0 0 1-1.15 1.46l1.3 1.82h-1l-1.18-1.68h-1.06v1.68h-.85v-4.76zm2.08 2.39a.85.85 0 0 0 1-.8.83.83 0 0 0-1-.8h-1.23v1.62h1.24zM-158.54 444.09h-1.53v-.79h3.91v.79h-1.53v4h-.85v-4zM-154.77 443.3h3.57v.76h-2.73v1.25h2.42v.76h-2.42v1.29h2.76v.76h-3.61v-4.82zM-147.11 443.3h.9l1.47 2.28 1.47-2.28h.9v4.82h-.85v-3.46l-1.52 2.27-1.51-2.26v3.44h-.83v-4.81zM-138.94 443.27h.78l2.12 4.85h-.89l-.49-1.16h-2.28l-.5 1.16h-.87zm1.21 2.94l-.83-1.93-.83 1.93h1.66zM-134.71 443.3h1.8a2.4 2.4 0 0 1 2.56 2.4 2.41 2.41 0 0 1-2.56 2.41h-1.8v-4.81zm1.8 4a1.57 1.57 0 0 0 1.67-1.62 1.58 1.58 0 0 0-1.67-1.64h-.95v3.28h.95zM-128.84 443.3h3.57v.76H-128v1.25h2.42v.76H-128v1.29h2.76v.76h-3.61v-4.82zM-123.74 443.3h2.15a1.94 1.94 0 0 1 1.39.48 1.46 1.46 0 0 1 .4 1 1.45 1.45 0 0 1-1.15 1.46l1.3 1.82h-1l-1.18-1.68h-1.06v1.68h-.85v-4.76zm2.08 2.39a.85.85 0 0 0 1-.8.83.83 0 0 0-1-.8h-1.23v1.62h1.24zM-116.56 443.27h.78l2.12 4.85h-.89L-115 447h-2.28l-.5 1.16h-.87zm1.21 2.94l-.83-1.93-.83 1.93h1.66zM-112.72 448.77a.58.58 0 0 0 .58-.65h-.35v-.94h.92v.82a1 1 0 0 1-1.06 1.14zM-107.65 445.73a2.44 2.44 0 0 1 2.48-2.49 2.51 2.51 0 0 1 1.89.75l-.54.63a1.92 1.92 0 0 0-1.35-.6 1.62 1.62 0 0 0-1.59 1.7 1.63 1.63 0 0 0 1.59 1.71 1.89 1.89 0 0 0 1.38-.63l.54.55a2.49 2.49 0 0 1-2 .85 2.42 2.42 0 0 1-2.4-2.47zM-100.16 443.27h.78l2.12 4.85h-.89l-.49-1.12h-2.28l-.5 1.16h-.87zm1.21 2.94l-.83-1.93-.83 1.93h1.66zM-93.28 445.71a1 1 0 0 1 1-1 1 1 0 0 1 1 1 1 1 0 0 1-1 1 1 1 0 0 1-1-1zM-86.94 443.3h3.57v.76h-2.73v1.25h2.42v.76h-2.42v1.29h2.76v.76h-3.61v-4.82zM-82.16 447.42l.51-.61a2.22 2.22 0 0 0 1.52.63.71.71 0 0 0 .85-.61c0-.34-.19-.53-1.09-.74s-1.6-.55-1.6-1.44a1.47 1.47 0 0 1 1.65-1.4 2.67 2.67 0 0 1 1.75.61l-.45.64a2.19 2.19 0 0 0-1.31-.5.67.67 0 0 0-.78.57c0 .37.22.54 1.14.76s1.55.61 1.55 1.41a1.5 1.5 0 0 1-1.72 1.44 3 3 0 0 1-2.02-.76zM-75.86 444.09h-1.53v-.79h3.91v.79H-75v4h-.85v-4zM-68.93 444.13l-.87.24-.18-.69 1.29-.41h.59v4.85h-.84v-4zM-66.42 447.63l.42-.63a1.6 1.6 0 0 0 1.1.45 1.32 1.32 0 0 0 1.16-1.51 1.42 1.42 0 0 1-1.13.51 1.53 1.53 0 0 1-1.71-1.53 1.68 1.68 0 0 1 1.8-1.67 1.73 1.73 0 0 1 1.33.51 2.41 2.41 0 0 1 .58 1.84c0 1.55-.77 2.62-2.06 2.62a2.28 2.28 0 0 1-1.49-.59zm2.7-2.77a.91.91 0 0 0-1-.89.88.88 0 0 0-1 .89.88.88 0 0 0 1 .86.89.89 0 0 0 1-.87zM-61.41 447.63l.41-.63a1.6 1.6 0 0 0 1.1.45 1.32 1.32 0 0 0 1.16-1.51 1.42 1.42 0 0 1-1.13.51 1.53 1.53 0 0 1-1.71-1.53 1.68 1.68 0 0 1 1.8-1.67 1.73 1.73 0 0 1 1.33.51 2.41 2.41 0 0 1 .58 1.84c0 1.55-.77 2.62-2.06 2.62a2.28 2.28 0 0 1-1.48-.59zm2.7-2.77a.91.91 0 0 0-1-.89.88.88 0 0 0-1 .89.88.88 0 0 0 1 .86.89.89 0 0 0 1-.87zM-56.53 445.73a2.25 2.25 0 0 1 2.11-2.49 2.24 2.24 0 0 1 2.09 2.48 2.26 2.26 0 0 1-2.11 2.49 2.23 2.23 0 0 1-2.09-2.48zm3.32 0a1.5 1.5 0 0 0-1.23-1.73 1.47 1.47 0 0 0-1.22 1.71 1.5 1.5 0 0 0 1.23 1.73 1.47 1.47 0 0 0 1.23-1.71z" transform="translate(261.33 -420.21)"/></g><g><path class="cls-1" d="M22.51 1.29l.19-1.2.69.99.75-1.08.59 1.29 1.1-.87.36 1.29 1.16-.85.11 1.3 1.41.27-.97.72 1.4.87-1.21.64 1.29 1.01-1.61.4L29 7.26h-1.95l.17 1.61-1.18-.36-.1 1.24-.96-1.12-.7 1.27-.48-1.59-1.53 1.27-.23-1.69-1.67.51.55-1.74-1.61-.74 1.33-1.12-.84-1.56 1.58-.47-.14-1.65 1.27.17z"/><path class="cls-1" d="M-261.33 448.07l21.64-12.26 7.38-5 1.5 1.6s9-7.49 11.7-7.49 35.94 21.5 35.94 23.11c-1.61.03-78.16.04-78.16.04z" transform="translate(261.33 -420.21)"/><path class="cls-1" d="M48.3 1.56l.29.25v.49l.2.39-.49.69-.49 1.03 1.57-.2.49-.34 1.23.54.29-.49.74-.15-1.08-1.03L52.17.93l-2.5.88-.54-.3-.83.05zM54.05 1.38l.49.4.23.72.35.58-.93.15-.2 1.13-.74 1.67 2.57-.32.8-.57 2.32 2.45.15-2.01 2.01.1-2.65-2.16L60.38.34l-3.65.59-.43.85-.88-.48-1.37.08z"/></g></svg>